<?xml version="1.0" encoding="utf-8"?>
<!-- Generator: Adobe Illustrator 25.3.1, SVG Export Plug-In . SVG Version: 6.00 Build 0)  -->
<svg version="1.1" id="Layer_1" xmlns="http://www.w3.org/2000/svg" xmlns:xlink="http://www.w3.org/1999/xlink" x="0px" y="0px"
	 width="383.8px" height="80.2px" viewBox="0 0 383.8 80.2" style="enable-background:new 0 0 383.8 80.2;" xml:space="preserve">
<style type="text/css">
	.st0{fill:#FFFFFF;}
</style>
<path class="st0" d="M65.2,56.8L56.3,19c2.3-0.8,3.8-3,3.7-5.4h-1.8c0,2-1.3,3.7-2.9,3.7s-2.9-1.7-2.9-3.7h-1.8c0,0.2,0,0.5,0,0.7
	H36.3c-0.3-1.3-0.7-2.3-1.3-3c-0.6-0.6-1.3-0.9-2.2-0.9c-0.7,0-1.4,0.3-1.9,0.8c-0.5,0.5-0.8,1.3-1.1,2.2c-1-1-1.8-2.3-0.7-3.6
	c1.4-1.5,3.4-0.3,5.1-0.3c1.3,0,2,0.1,2.7-0.5c0.3-0.2,0.5-0.4,0.8-0.7c0.9,0.1,1.8,0.2,2.7,0.4c0.6,0.1,0.8-0.8,0.2-0.9v0
	c-0.8-0.1-1.6-0.3-2.4-0.4c0.2-0.3,0.3-0.6,0.4-1c0-4.6-7.2-3.3-9.3-2.9C27,4.4,24.8,5.9,23.2,8c-1.2,2-2.1,3.7-1.8,6.2
	c0,0.1,0,0.1,0,0.2h-5c0-0.2,0-0.5,0-0.7h-1.8c0,2-1.3,3.6-2.9,3.6S9,15.7,9,13.7H7.2c-0.1,2.3,1.3,4.4,3.5,5.2L1.8,56.8l0.1,0H0
	c0,5.9,5.3,10.7,11.7,10.7c6.5,0,11.7-4.8,11.7-10.7h-2.1L12.5,19c1.2-0.2,2.3-0.9,3-1.9h6.8c1.2,2.4,3.6,3.4,6.9,3.8
	c0,2.3,0.1,5,0.3,7.9c-0.8,0.1-1.8,0.5-2.2,0.7c-0.9,0.4-1.9,0.9-2.8,1.4c-1.3,0.7-2.4,1.6-2.6,2.8c-0.1,0.6-0.1,1.2,0.1,1.8
	c0.2,0.7,0.5,1.3,0.8,1.9c2,3,5.8,2.8,6.9,3.1c0.1,0.1,0.2,0.1,0.4,0.2c0,1.1,0.1,2.1,0.1,3.2c0,0.3,0,0.5,0,0.8
	c-1.2,0.3-2.4,0.6-3.5,0.9c-1.5,0.4-2.4,1.8-2.4,3.3c0,1.4,0.4,2.7,1.1,3.8c0.4,0.7,0.8,1.2,1.4,1.7c0.9,0.9,2,1.6,3.3,1.8
	c0.2,0,0.3,0.1,0.5,0.1c0.1,1.9,0.1,3.6,0.2,5.2c-0.9,0.5-1.7,1.3-2.2,2.2c-0.4,1.1-1,3.1-0.3,4.3c0.3,0.4,1.4,1.2,1.8,0.6
	c0.1-0.2,0-0.4,0.1-0.5c0.1-0.2,0.2-0.3,0.3-0.5c0.2-0.2,0.3-0.4,0.5-0.6c0.5,9.5,0.9,10.2,1.7,10.2c0.8,0,1.3-1.6,1.9-13.2
	c0.3-0.2,0.8-0.6,1-0.8c0.5-0.5,1.1-1,1.7-1.3c1.1-0.6,2.4-1.2,2.8-2.3c0.3-0.7,0.6-1.5,0.7-2.3c0-1.2-0.6-2.2-1.6-2.8
	c-0.8-0.6-1.6-1.2-2.5-1.8c-0.5-0.2-1-0.5-1.5-0.7c0-0.9,0.1-1.9,0.1-2.9c0.5-0.2,1.2-0.7,1.2-0.7c2.4-0.6,5.2-1.6,6.5-3.2
	c0.6-0.6,1-1.4,1.3-2.2c0.3-0.9,0.2-1.9-0.2-2.8c-0.4-0.5-0.9-1-1.5-1.4c-1.2-0.8-2.4-1.5-3.7-2.1c-0.9-0.5-1.9-0.9-2.9-1.1
	c0.1-1.1,0.1-2.1,0.2-3.1c0.1-1,0.1-2,0.2-2.9c0.8-0.1,1.5-0.4,2.1-0.9c0.7-0.3,1.4-0.7,2-1.2c1.2-1.1,2-2.7,2.2-4.3
	c0.3-1.6,0.4-3.5-1-4.6c-0.8-0.7-1.6-1.2-2.6-1.6h12.4c0.7,1,1.7,1.7,2.8,2l-8.8,37.8l0.1,0h-1.8c0,5.9,5.3,10.7,11.7,10.7
	c6.5,0,11.7-4.8,11.7-10.7L65.2,56.8z M33.8,3.8c-0.3,0-0.7-0.1-1-0.1c0.1,0,0.3-0.1,0.4-0.1C33.4,3.7,33.6,3.7,33.8,3.8z M32.8,3.7
	c-0.4,0.1-0.7,0.4-0.7,0.8c0,0.5,0.5,0.8,1.2,0.8s1.2-0.4,1.2-0.8c0-0.3-0.3-0.6-0.6-0.7c2,0.2,3.8,1,4,2.2c0,0,0,0,0,0
	c0,0.1,0,0.1,0,0.2c0,0.5-0.1,0.9-0.3,1.3c-0.6-0.1-1.2-0.1-1.9-0.2c-0.3,0-0.5,0.2-0.4,0.5c0,0.2,0.2,0.4,0.4,0.4
	c0.4,0,0.8,0.1,1.2,0.1c-0.1,0.1-0.2,0.2-0.3,0.3c-0.9,0.6-1.8,0.3-2.9,0.1C32,8.5,29,9,28.7,6.8C28.4,4.6,30.6,3.7,32.8,3.7z
	 M10.7,56.8l-7.2,0l7.2-30.9V56.8z M19.6,56.8h-7.2V26.1L19.6,56.8z M30.7,32.7c-0.2-4.4-0.5-8.4-0.5-11.7c1.5,0.1,4.5,0,5.7,0.9
	c-0.1,3.1-0.3,6.7-0.5,10.7c-0.1,1-0.1,2-0.2,3c-1-0.1-2-0.4-3-0.6c-0.5-0.1-0.9-0.2-1.3-0.3C30.7,34,30.7,33.3,30.7,32.7z M31.7,12
	c0.3-0.3,0.7-0.5,1.2-0.5c0.6,0,1.1,0.2,1.5,0.6c0.5,0.5,0.8,1.3,1,2.3h-4.6c0,0-0.1-0.1-0.1-0.1C30.9,13.3,31.2,12.5,31.7,12z
	 M32.8,75.3c-0.5-2.6-0.8-9.8-1.2-18.8c0.5,0.1,1,0.3,1.5,0.5c0.3,0.1,0.6,0.3,0.9,0.5C33.7,65.9,33.3,72.8,32.8,75.3z M33.5,51.4
	c-0.6-0.2-1.6-0.8-2.1-1.4c-0.1-2.1-0.1-4.2-0.2-6.3l0,0c0-1-0.1-2.1-0.1-3.1c0.1,0,0.3,0,0.4,0.1c0.7,0.1,1.5,0.3,2.2,0.5
	c0.4,0.1,0.8,0.4,1.1,0.7c0,0.6-0.1,1.1-0.1,1.7c-0.1,2.7-0.2,5.4-0.3,8C34.1,51.6,33.8,51.5,33.5,51.4z M54.6,56.8h-7.2l7.2-30.9
	V56.8z M56.3,56.8V26.1l7.2,30.8H56.3z"/>
<g id="Group_57">
	<path id="Path_70" class="st0" d="M130.8,1.5c-0.1,0.5-0.1,1-0.1,1.5c0,0.5,0,0.8,0,1.1c0,0.3,0,0.6,0,0.9c0,0.3,0,0.5,0,0.7h-0.5
		c-0.1-0.7-0.2-1.5-0.4-2.2c-0.1-0.5-0.4-0.9-0.8-1.2c-0.6-0.3-1.2-0.4-1.9-0.4h-1.1v11.3c0,0.4,0,0.8,0.1,1.2
		c0.1,0.3,0.3,0.5,0.6,0.5c0.4,0.1,0.8,0.2,1.3,0.2v0.4c-0.3,0-0.8,0-1.3,0s-1.1,0-1.6,0c-0.6,0-1.2,0-1.7,0c-0.5,0-0.9,0-1.3,0
		v-0.4c0.4,0,0.9-0.1,1.3-0.2c0.3-0.1,0.5-0.3,0.6-0.5c0.1-0.4,0.2-0.8,0.1-1.2V2h-1.1c-0.6,0-1.3,0.1-1.8,0.4
		c-0.4,0.3-0.7,0.7-0.8,1.2c-0.2,0.7-0.3,1.5-0.4,2.2h-0.5c0-0.2,0-0.5,0-0.7c0-0.3,0-0.6,0-0.9c0-0.3,0-0.6,0-1.1
		c0-0.5-0.1-1-0.1-1.5c0.6,0,1.2,0,1.8,0c0.7,0,1.3,0,2,0h3.6c0.7,0,1.3,0,2,0C129.7,1.5,130.3,1.5,130.8,1.5z"/>
	<path id="Path_71" class="st0" d="M135,0v7.5c0.2-0.8,0.8-1.4,1.4-1.9c0.6-0.3,1.3-0.5,1.9-0.5c0.4,0,0.9,0.1,1.3,0.2
		c0.3,0.1,0.6,0.3,0.8,0.6c0.3,0.3,0.4,0.6,0.5,1c0.1,0.5,0.2,1.1,0.2,1.6v5.3c-0.1,0.4,0.1,0.8,0.3,1.1c0.3,0.2,0.8,0.3,1.2,0.3
		v0.4c-0.2,0-0.6,0-1,0c-0.5,0-0.9,0-1.4,0c-0.4,0-0.9,0-1.3,0c-0.4,0-0.7,0-0.9,0v-0.4c0.4,0,0.7-0.1,1-0.3
		c0.2-0.3,0.3-0.7,0.3-1.1V8c0-0.4,0-0.8-0.1-1.1c-0.1-0.3-0.2-0.6-0.4-0.8c-0.3-0.2-0.7-0.3-1.1-0.3c-0.8,0-1.5,0.4-2,1
		c-0.6,0.8-0.8,1.7-0.8,2.6v4.4c0,0.4,0.1,0.8,0.3,1.1c0.3,0.2,0.7,0.3,1,0.3v0.4c-0.2,0-0.5,0-0.9,0s-0.8,0-1.3,0
		c-0.4,0-0.9,0-1.4,0c-0.5,0-0.8,0-1,0v-0.4c0.4,0,0.8-0.1,1.2-0.3c0.3-0.3,0.4-0.7,0.3-1.1V2.4c0-0.5-0.1-0.9-0.3-1.3
		c-0.3-0.3-0.8-0.5-1.2-0.4V0.2c0.4,0,0.8,0.1,1.2,0.1c0.4,0,0.7,0,1.1-0.1C134.3,0.2,134.7,0.1,135,0z"/>
	<path id="Path_72" class="st0" d="M148.4,5.1c1-0.1,2,0.3,2.7,1.1c0.7,0.9,1.1,2.1,1,3.3h-7l0-0.4h5.1c0-0.6,0-1.2-0.2-1.8
		c-0.1-0.5-0.3-0.9-0.6-1.3c-0.3-0.3-0.7-0.5-1.1-0.5c-0.7,0-1.3,0.4-1.6,0.9c-0.6,0.9-0.8,1.9-0.8,2.9l0.1,0.1c0,0.2,0,0.4-0.1,0.7
		c0,0.2,0,0.5,0,0.7c0,0.8,0.1,1.6,0.4,2.3c0.2,0.6,0.6,1.1,1.1,1.5c0.4,0.3,0.9,0.5,1.5,0.5c0.6,0,1.2-0.1,1.7-0.4
		c0.6-0.4,1-0.9,1.3-1.6l0.4,0.2c-0.2,0.5-0.4,0.9-0.7,1.3c-0.3,0.4-0.8,0.8-1.3,1c-0.5,0.3-1.1,0.4-1.8,0.4c-0.9,0-1.7-0.2-2.5-0.7
		c-0.7-0.4-1.2-1.1-1.6-1.8c-0.4-0.8-0.6-1.8-0.5-2.7c0-1,0.2-2.1,0.6-3c0.3-0.8,0.9-1.5,1.6-2C146.7,5.3,147.6,5,148.4,5.1z"/>
	<path id="Path_73" class="st0" d="M164,1.5v0.4c-0.3,0-0.7,0-1,0.1c-0.2,0.1-0.4,0.3-0.5,0.5c-0.1,0.4-0.1,0.7-0.1,1.1v9.9
		c0,0.4,0,0.7,0.1,1.1c0.1,0.2,0.2,0.4,0.5,0.5c0.3,0.1,0.7,0.1,1,0.1h1.5c0.7,0,1.3-0.1,1.9-0.4c0.4-0.3,0.8-0.7,0.9-1.2
		c0.2-0.7,0.4-1.4,0.4-2.2h0.5c0,0.4-0.1,1-0.1,1.6c0,0.3,0,0.6,0,1.1c0,0.5,0.1,1,0.1,1.5c-0.7,0-1.4,0-2.3,0s-1.6,0-2.3,0h-1.6
		c-0.7,0-1.4,0-2.1,0s-1.4,0-2.1,0v-0.4c0.3,0,0.7-0.1,1-0.2c0.2-0.1,0.4-0.3,0.5-0.5c0.1-0.4,0.1-0.7,0.1-1.1V3.6
		c0-0.4,0-0.7-0.1-1.1c-0.1-0.2-0.2-0.4-0.5-0.5c-0.3-0.1-0.7-0.2-1-0.1V1.5c0.3,0,0.6,0,1.1,0c0.5,0,0.9,0,1.5,0c0.5,0,0.9,0,1.4,0
		C163.3,1.5,163.6,1.5,164,1.5z"/>
	<path id="Path_74" class="st0" d="M173,15.8c-0.7,0.1-1.4-0.2-1.9-0.6c-0.4-0.5-0.6-1.1-0.6-1.7c0-0.5,0.1-1,0.4-1.4
		c0.3-0.4,0.6-0.7,1-0.9c0.4-0.2,0.9-0.4,1.3-0.6c0.5-0.2,0.9-0.3,1.3-0.5c0.4-0.1,0.7-0.3,1-0.5c0.3-0.2,0.4-0.5,0.4-0.8V7.5
		c0-0.4-0.1-0.9-0.2-1.3c-0.1-0.3-0.4-0.5-0.7-0.6c-0.3-0.1-0.6-0.2-0.9-0.2c-0.4,0-0.7,0.1-1.1,0.1c-0.4,0.1-0.7,0.3-0.9,0.6
		c0.6,0.1,1,0.6,0.9,1.2c0,0.3-0.1,0.6-0.3,0.8c-0.2,0.2-0.5,0.3-0.8,0.3c-0.3,0-0.6-0.1-0.8-0.4c-0.2-0.2-0.3-0.5-0.3-0.8
		c0-0.3,0.1-0.6,0.3-0.8c0.2-0.2,0.4-0.4,0.7-0.6c0.4-0.2,0.8-0.4,1.2-0.5c0.5-0.2,1.1-0.2,1.6-0.2c0.5,0,0.9,0.1,1.4,0.2
		c0.4,0.1,0.7,0.3,1,0.5c0.3,0.3,0.6,0.7,0.7,1.2c0.1,0.5,0.2,1.1,0.2,1.6v5.5c0,0.2,0,0.5,0.1,0.7c0.1,0.2,0.3,0.2,0.5,0.2
		c0.2,0,0.3,0,0.5-0.1c0.1-0.1,0.3-0.2,0.4-0.3l0.2,0.3c-0.3,0.2-0.5,0.4-0.8,0.5c-0.3,0.2-0.7,0.2-1,0.2c-0.5,0.1-1-0.1-1.4-0.5
		c-0.2-0.4-0.3-0.8-0.3-1.2c-0.3,0.6-0.8,1.1-1.4,1.4C174.2,15.6,173.6,15.8,173,15.8z M173.9,15c0.4,0,0.8-0.1,1.2-0.3
		c0.4-0.3,0.8-0.7,1.1-1.2V9.5c-0.2,0.3-0.6,0.6-0.9,0.7c-0.4,0.2-0.9,0.4-1.3,0.6c-0.4,0.2-0.8,0.5-1.1,0.8c-0.3,0.4-0.5,1-0.5,1.5
		c0,0.5,0.1,1,0.5,1.4C173,14.8,173.5,15,173.9,15L173.9,15z"/>
	<path id="Path_75" class="st0" d="M183.9,5.3v0.4c-0.3,0-0.6,0-0.9,0.1c-0.2,0-0.4,0.2-0.5,0.4c-0.1,0.4,0,0.8,0.2,1.2l2.1,5.9
		l-0.1,0l2.9-8.1l0.4,0.2l-3.6,10.3H184l-3.3-8.8c-0.1-0.4-0.3-0.7-0.6-1c-0.2-0.1-0.3-0.1-0.5-0.2V5.3c0.3,0,0.5,0.1,0.8,0.1
		s0.6,0,0.9,0c0.4,0,0.8,0,1.3,0S183.5,5.4,183.9,5.3z M194.9,5.3v0.4c-0.3,0-0.5,0.1-0.7,0.3c-0.3,0.3-0.5,0.7-0.6,1.1l-2.9,8.6
		h-0.3l-3.2-8.2l0.5-2.3h0.5l3.1,8.2l-0.2,0.1l2-6c0.2-0.7,0.2-1.1,0.1-1.4c-0.4-0.3-0.9-0.5-1.3-0.5V5.3c0.2,0,0.4,0,0.6,0
		s0.3,0,0.5,0s0.3,0,0.5,0c0.3,0,0.6,0,0.8,0C194.4,5.4,194.7,5.4,194.9,5.3z"/>
	<path id="Path_76" class="st0" d="M206.8,1.2c1.2,0,2.3,0.3,3.3,0.9c1,0.6,1.7,1.4,2.2,2.5c0.6,1.2,0.8,2.6,0.8,3.9
		c0,1.3-0.2,2.7-0.8,3.9c-0.5,1.1-1.3,2-2.2,2.6c-1,0.6-2.1,1-3.3,0.9c-1.2,0-2.3-0.3-3.3-0.9c-1-0.6-1.7-1.4-2.2-2.5
		c-1.1-2.5-1-5.3,0-7.8c0.5-1.1,1.3-2,2.2-2.6C204.5,1.5,205.6,1.2,206.8,1.2z M206.7,1.6c-0.8,0-1.7,0.3-2.3,0.9
		c-0.7,0.7-1.2,1.5-1.5,2.5c-0.4,1.2-0.5,2.4-0.5,3.6c0,1.3,0.2,2.5,0.6,3.7c0.3,0.9,0.9,1.8,1.6,2.4c0.6,0.5,1.4,0.8,2.2,0.8
		c0.8,0,1.7-0.3,2.3-0.9c0.7-0.7,1.2-1.5,1.5-2.5c0.4-1.2,0.5-2.4,0.5-3.6c0-1.3-0.2-2.5-0.6-3.7c-0.3-0.9-0.9-1.7-1.6-2.4
		C208.3,1.9,207.5,1.6,206.7,1.6L206.7,1.6z"/>
	<path id="Path_77" class="st0" d="M220.2,0.8c0.7,0,1.3,0.1,1.9,0.4c0.5,0.3,1,0.7,1.3,1.3l-0.3,0.2c-0.3-0.5-0.6-0.8-1.1-1.1
		c-0.5-0.3-1.1-0.4-1.6-0.4c-0.7,0-1.4,0.2-1.9,0.7c-0.5,0.7-0.8,1.6-0.7,2.4v1h3v0.4h-3v8c-0.1,0.4,0.1,0.8,0.3,1.1
		c0.3,0.2,0.8,0.3,1.2,0.3v0.4c-0.2,0-0.6,0-1,0c-0.5,0-0.9,0-1.4,0c-0.5,0-0.9,0-1.4,0c-0.5,0-0.8,0-1,0v-0.4
		c0.4,0,0.8-0.1,1.2-0.3c0.3-0.3,0.4-0.7,0.3-1.1v-8h-1.6V5.4h1.6c0-0.6,0.1-1.3,0.3-1.9c0.3-1,1-1.9,2-2.3
		C218.9,0.9,219.6,0.8,220.2,0.8z M227.6,0c0.5,0,1,0,1.5,0.2c0.4,0.1,0.8,0.2,1.1,0.4c0.2,0.1,0.4,0.3,0.5,0.5
		c0.1,0.2,0.2,0.4,0.2,0.6c0,0.3-0.1,0.7-0.4,0.9c-0.5,0.5-1.3,0.5-1.8,0c-0.2-0.2-0.4-0.6-0.4-0.9c0-0.5,0.2-0.9,0.7-1.1
		c-0.2-0.1-0.4-0.2-0.7-0.2c-0.3,0-0.5-0.1-0.8-0.1c-0.6,0-1.2,0.1-1.7,0.4c-0.5,0.3-0.8,0.7-1.1,1.1c-0.1,0.3-0.2,0.5-0.3,0.8
		c-0.1,0.4-0.1,0.7-0.2,1.1c0,0.4-0.1,1-0.1,1.6h3.2c0.5,0,1,0,1.4,0c0.4,0,0.7,0,1-0.1c0.3,0,0.6-0.1,0.9-0.1v8.6
		c-0.1,0.4,0.1,0.8,0.3,1.1c0.3,0.2,0.8,0.3,1.2,0.3v0.4c-0.2,0-0.6,0-1,0c-0.5,0-0.9,0-1.4,0c-0.5,0-0.9,0-1.4,0s-0.8,0-1,0v-0.4
		c0.4,0,0.8-0.1,1.2-0.3c0.3-0.3,0.4-0.7,0.3-1.1V7.5c0-0.5-0.1-0.9-0.3-1.3c-0.3-0.3-0.8-0.5-1.2-0.4h-3.2v8
		c-0.1,0.4,0.1,0.9,0.5,1.1c0.4,0.2,0.8,0.3,1.3,0.3v0.4c-0.3,0-0.6,0-1.1,0c-0.5,0-1,0-1.5,0s-1,0-1.4,0c-0.4,0-0.8,0-1,0v-0.4
		c0.4,0,0.8-0.1,1.2-0.3c0.3-0.3,0.4-0.7,0.3-1.1v-8h-1.6V5.4h1.6c0-0.8,0.1-1.5,0.3-2.3c0.2-0.7,0.6-1.3,1.1-1.8
		c0.4-0.4,0.9-0.7,1.5-0.9C226.1,0.1,226.9,0,227.6,0L227.6,0z"/>
	<path id="Path_78" class="st0" d="M238.3,5.1c0.4,0,0.8,0.1,1.2,0.2c0.4,0.1,0.7,0.3,1.1,0.5c0.3,0.2,0.5,0.4,0.7,0.7
		c0.2,0.3,0.2,0.5,0.2,0.8c0,0.3-0.1,0.6-0.3,0.8c-0.2,0.2-0.5,0.3-0.8,0.3c-0.3,0-0.5-0.1-0.8-0.3c-0.2-0.2-0.3-0.5-0.3-0.7
		c0-0.3,0.1-0.5,0.2-0.7c0.2-0.2,0.4-0.3,0.6-0.4c-0.2-0.3-0.4-0.5-0.7-0.6c-0.3-0.2-0.7-0.2-1.1-0.2c-0.3,0-0.7,0.1-1,0.2
		c-0.4,0.2-0.7,0.5-0.9,0.8c-0.3,0.5-0.5,1-0.7,1.5c-0.2,0.8-0.3,1.6-0.3,2.4c0,0.9,0.1,1.9,0.4,2.8c0.2,0.6,0.6,1.1,1.1,1.5
		c0.4,0.3,0.9,0.5,1.4,0.4c0.6,0,1.1-0.2,1.6-0.5c0.6-0.4,1.1-0.9,1.3-1.6l0.4,0.1c-0.2,0.5-0.4,0.9-0.7,1.3c-0.7,1-1.8,1.5-3,1.5
		c-0.8,0-1.6-0.2-2.2-0.6c-0.7-0.5-1.2-1.1-1.6-1.8c-0.4-0.9-0.6-1.8-0.6-2.8c0-1,0.2-2,0.6-2.9c0.4-0.8,0.9-1.5,1.6-2
		C236.6,5.3,237.4,5.1,238.3,5.1z"/>
	<path id="Path_79" class="st0" d="M247.8,5.1c1-0.1,2,0.3,2.7,1.1c0.7,0.9,1.1,2.1,1,3.3h-7l0-0.4h5.1c0-0.6,0-1.2-0.2-1.8
		c-0.1-0.5-0.3-0.9-0.6-1.3c-0.3-0.3-0.7-0.5-1.1-0.5c-0.7,0-1.3,0.4-1.6,0.9c-0.6,0.9-0.8,1.9-0.8,2.9l0.1,0.1c0,0.2,0,0.4-0.1,0.7
		c0,0.2,0,0.5,0,0.7c0,0.8,0.1,1.6,0.4,2.3c0.2,0.6,0.6,1.1,1.1,1.5c0.4,0.3,0.9,0.5,1.5,0.5c0.6,0,1.2-0.1,1.7-0.4
		c0.6-0.4,1-0.9,1.3-1.6l0.4,0.2c-0.2,0.5-0.4,0.9-0.7,1.3c-0.3,0.4-0.8,0.8-1.3,1c-0.5,0.3-1.1,0.4-1.8,0.4c-0.9,0-1.7-0.2-2.5-0.7
		c-0.7-0.4-1.2-1.1-1.6-1.8c-0.4-0.8-0.6-1.8-0.5-2.7c0-1,0.2-2.1,0.6-3c0.3-0.8,0.9-1.5,1.6-2C246.1,5.3,247,5,247.8,5.1z"/>
	<path id="Path_80" class="st0" d="M256.6,5.1c0.5,0,0.9,0.1,1.4,0.3c0.3,0.1,0.6,0.3,0.8,0.5c0.4,0.4,0.7,0.1,0.8-0.7h0.5
		c0,0.4,0,0.8-0.1,1.3s0,1.2,0,2.1h-0.5c-0.1-0.5-0.2-1-0.4-1.4c-0.2-0.4-0.5-0.8-0.8-1.1c-0.4-0.3-0.9-0.5-1.5-0.4
		c-0.4,0-0.8,0.1-1.2,0.4c-0.3,0.3-0.5,0.7-0.5,1.1c0,0.4,0.1,0.7,0.4,1c0.3,0.3,0.6,0.6,0.9,0.8c0.4,0.2,0.8,0.5,1.3,0.8
		c0.7,0.4,1.3,0.9,1.9,1.5c0.5,0.5,0.8,1.2,0.8,2c0,0.6-0.1,1.1-0.5,1.5c-0.3,0.4-0.8,0.7-1.2,0.9c-0.5,0.2-1.1,0.3-1.7,0.3
		c-0.3,0-0.6,0-0.8-0.1c-0.3,0-0.5-0.1-0.7-0.2c-0.1-0.1-0.3-0.2-0.4-0.2c-0.1-0.1-0.3-0.2-0.4-0.3c-0.1-0.1-0.2-0.1-0.3,0
		c0,0,0,0,0,0c-0.1,0.2-0.2,0.4-0.2,0.7h-0.5c0-0.4,0-0.9,0.1-1.6c0-0.6,0-1.4,0-2.4h0.5c0.1,0.7,0.2,1.3,0.4,2
		c0.1,0.5,0.4,1,0.8,1.3c0.4,0.3,1,0.5,1.6,0.5c0.4,0,0.8-0.2,1.2-0.4c0.4-0.4,0.7-0.9,0.6-1.5c0-0.6-0.2-1.1-0.6-1.4
		c-0.5-0.4-1-0.8-1.6-1.2c-0.5-0.3-0.9-0.6-1.3-0.9c-0.4-0.3-0.7-0.6-1-1c-0.5-0.9-0.5-2,0-2.9c0.3-0.4,0.7-0.7,1.1-0.8
		C255.6,5.2,256.1,5.1,256.6,5.1z"/>
	<path id="Path_81" class="st0" d="M271.8,5.1c0.8,0,1.6,0.2,2.3,0.6c0.7,0.4,1.3,1,1.6,1.8c0.8,2,0.8,4.2,0,6.2
		c-0.4,0.7-0.9,1.3-1.6,1.7c-1.4,0.7-3.1,0.7-4.6,0c-0.7-0.4-1.3-1-1.6-1.7c-0.8-2-0.8-4.2,0-6.2c0.4-0.7,0.9-1.4,1.6-1.8
		C270.2,5.2,271,5.1,271.8,5.1z M271.8,5.5c-0.8,0-1.5,0.5-1.9,1.2c-1,2.5-1,5.2,0,7.7c0.5,1,1.7,1.5,2.8,1c0.4-0.2,0.8-0.5,1-1
		c1-2.5,1-5.2,0-7.7C273.3,5.9,272.6,5.5,271.8,5.5L271.8,5.5z"/>
	<path id="Path_82" class="st0" d="M282.8,0c0.3,0,0.7,0,1,0.1c0.3,0.1,0.5,0.2,0.7,0.4c0.2,0.2,0.3,0.3,0.5,0.6
		c0.1,0.2,0.2,0.4,0.2,0.7c0,0.6-0.4,1-1,1.1c0,0,0,0-0.1,0c-0.3,0-0.6-0.1-0.8-0.3c-0.4-0.4-0.4-1-0.1-1.5c0.2-0.2,0.4-0.3,0.6-0.3
		c-0.1-0.1-0.2-0.3-0.3-0.3c-0.2-0.1-0.4-0.1-0.7-0.1c-0.3,0-0.5,0.1-0.8,0.2c-0.2,0.1-0.4,0.3-0.5,0.5c-0.2,0.4-0.3,0.8-0.3,1.2
		c0,0.6-0.1,1.4-0.1,2.5v0.5h2.1v0.4h-2.1v7.8c-0.1,0.5,0.2,1,0.6,1.3c0.5,0.2,1,0.4,1.5,0.3v0.4c-0.3,0-0.7,0-1.3,0
		c-0.6,0-1.1,0-1.8,0c-0.5,0-0.9,0-1.3,0c-0.4,0-0.8,0-1,0v-0.4c0.4,0,0.8-0.1,1.2-0.3c0.3-0.3,0.4-0.7,0.3-1.1v-8h-1.6V5.4h1.6
		c0-0.9,0.1-1.8,0.2-2.7c0.1-0.6,0.4-1.2,0.8-1.6c0.3-0.3,0.6-0.6,1-0.7C281.8,0.1,282.3,0,282.8,0z"/>
</g>
<g id="Group_58">
	<path id="Path_83" class="st0" d="M92.1,26.2c4.5,0,7.8,1.1,10,3.4c2.2,2.2,3.3,5.5,3.3,9.7c0.1,2.5-0.5,4.9-1.6,7.2
		c-1,2-2.7,3.7-4.6,4.8c-2.3,1.2-4.8,1.8-7.4,1.7c-0.6,0-1.4,0-2.4-0.1s-2-0.1-2.8-0.1c-0.9,0-1.7,0-2.6,0c-0.9,0-1.5,0-2.1,0.1
		v-0.8c0.7,0,1.3-0.1,1.9-0.3c0.4-0.1,0.8-0.5,0.9-0.9c0.2-0.7,0.3-1.3,0.2-2V30.2c0-0.7,0-1.4-0.2-2.1c-0.1-0.4-0.5-0.8-0.9-0.9
		c-0.6-0.2-1.3-0.3-1.9-0.3v-0.8c0.5,0,1.2,0.1,2.1,0.1c0.9,0,1.7,0,2.5,0c0.9,0,1.9-0.1,3-0.1S91.4,26.2,92.1,26.2z M91.1,26.8
		c-0.8-0.1-1.6,0.1-2.3,0.6c-0.4,0.8-0.6,1.7-0.5,2.6v18.8c-0.1,0.9,0.1,1.8,0.5,2.6c0.6,0.5,1.5,0.7,2.3,0.6
		c2.2,0.1,4.4-0.4,6.4-1.5c1.5-1,2.7-2.6,3.2-4.3c0.6-2.3,1-4.6,0.9-7c0-4.2-0.8-7.4-2.3-9.4S95,26.8,91.1,26.8L91.1,26.8z"/>
	<path id="Path_84" class="st0" d="M120.2,32.9c0.6,0,1.2,0.1,1.8,0.4c0.5,0.3,0.9,0.6,1.2,1.1c0.3,0.4,0.4,1,0.4,1.5
		c0,0.6-0.2,1.2-0.6,1.7c-0.4,0.5-1,0.7-1.6,0.7c-0.5,0-1-0.2-1.4-0.5c-0.4-0.4-0.6-0.9-0.6-1.5c0-0.4,0.1-0.9,0.4-1.2
		c0.2-0.3,0.5-0.6,0.9-0.8c-0.2-0.3-0.5-0.4-0.8-0.4c-1,0-2,0.4-2.7,1.2c-0.8,0.8-1.4,1.8-1.8,2.8c-0.4,1-0.6,2-0.7,3v8
		c-0.1,1,0.3,1.9,1.1,2.5c0.9,0.5,1.9,0.7,2.9,0.6v0.8c-0.6,0-1.4-0.1-2.4-0.1c-1.1,0-2.2-0.1-3.4-0.1c-0.9,0-1.7,0-2.5,0.1
		c-0.8,0-1.5,0.1-1.9,0.1V52c0.8,0.1,1.6-0.1,2.2-0.6c0.5-0.6,0.8-1.4,0.7-2.1V37.5c0.1-0.9-0.1-1.7-0.6-2.5
		c-0.6-0.6-1.4-0.9-2.3-0.8v-0.8c0.8,0.1,1.6,0.1,2.3,0.1c0.7,0,1.4,0,2.1-0.1c0.6-0.1,1.2-0.2,1.8-0.4v4.7c0.3-0.8,0.7-1.5,1.2-2.2
		c0.5-0.7,1.1-1.4,1.9-1.9C118.5,33.2,119.4,32.9,120.2,32.9z"/>
	<path id="Path_85" class="st0" d="M127.6,48.5c0.6,0,1.3,0.3,1.7,0.7c0.9,0.9,1,2.4,0,3.3c0,0,0,0,0,0c-0.4,0.5-1.1,0.7-1.7,0.7
		c-0.6,0-1.3-0.3-1.7-0.7c-0.9-0.9-1-2.4,0-3.3c0,0,0,0,0,0C126.3,48.8,126.9,48.5,127.6,48.5z"/>
	<path id="Path_86" class="st0" d="M143.3,26.2c0.5,0,1.2,0,2.1,0.1c0.9,0,1.7,0,2.5,0c1.2,0,2.3,0,3.4,0c1.1,0,1.8,0,2.3,0
		c2.6,0,4.6,0.6,5.9,1.7c1.3,1,2,2.6,2,4.3c0,0.9-0.2,1.8-0.5,2.6c-0.4,0.9-1,1.7-1.8,2.3c-1,0.8-2.1,1.3-3.4,1.7v0.1
		c1.6,0.1,3.2,0.6,4.7,1.4c1,0.6,1.8,1.4,2.4,2.4c1.3,2.8,0.6,6.2-1.7,8.2c-1.9,1.5-4.3,2.2-6.6,2.1c-0.6,0-1.4,0-2.5-0.1
		c-1.1,0-2.4-0.1-4-0.1c-0.9,0-1.7,0-2.6,0c-0.9,0-1.5,0-2.1,0.1v-0.8c0.7,0,1.3-0.1,1.9-0.3c0.4-0.1,0.8-0.5,0.9-0.9
		c0.2-0.7,0.3-1.3,0.2-2V30.2c0-0.7,0-1.4-0.2-2.1c-0.1-0.4-0.5-0.8-0.9-0.9c-0.6-0.2-1.3-0.3-1.9-0.3L143.3,26.2z M152.6,26.9
		c-0.8-0.1-1.6,0.1-2.3,0.6c-0.4,0.8-0.6,1.7-0.5,2.6v18.7c-0.1,0.9,0.1,1.8,0.5,2.5c0.7,0.5,1.5,0.7,2.3,0.6c2.5,0,4.2-0.6,5.4-1.7
		c1.2-1.3,1.8-3.1,1.7-4.9c0.1-1.6-0.5-3.3-1.6-4.5c-1-1.1-2.8-1.6-5.1-1.6h-3.9v-0.6h3.2c1.2,0.1,2.4-0.2,3.4-0.8
		c0.8-0.5,1.4-1.3,1.7-2.3c0.3-1,0.5-2,0.5-3c0.1-1.5-0.3-3-1.2-4.2C155.6,27.3,154.1,26.8,152.6,26.9z"/>
	<path id="Path_87" class="st0" d="M177.7,32.9c0.6,0,1.2,0.1,1.8,0.4c0.5,0.3,0.9,0.6,1.2,1.1c0.3,0.4,0.4,1,0.4,1.5
		c0,0.6-0.2,1.2-0.6,1.7c-0.4,0.5-1,0.7-1.6,0.7c-0.5,0-1-0.2-1.4-0.5c-0.4-0.4-0.6-0.9-0.6-1.5c0-0.4,0.1-0.9,0.4-1.2
		c0.2-0.3,0.5-0.6,0.9-0.8c-0.2-0.3-0.5-0.4-0.8-0.4c-1,0-2,0.4-2.7,1.2c-0.8,0.8-1.4,1.8-1.8,2.8c-0.4,1-0.6,2-0.7,3v8
		c-0.1,1,0.3,1.9,1.1,2.5c0.9,0.5,1.9,0.7,2.9,0.6v0.8c-0.6,0-1.4-0.1-2.4-0.1s-2.2-0.1-3.4-0.1c-0.9,0-1.7,0-2.5,0.1
		s-1.5,0.1-1.9,0.1V52c0.8,0.1,1.6-0.1,2.2-0.6c0.5-0.6,0.8-1.4,0.7-2.1V37.5c0.1-0.9-0.1-1.7-0.6-2.5c-0.6-0.6-1.4-0.9-2.3-0.8
		v-0.8c0.8,0.1,1.6,0.1,2.3,0.1c0.7,0,1.4,0,2.1-0.1c0.6-0.1,1.2-0.2,1.8-0.4v4.7c0.3-0.8,0.7-1.5,1.2-2.2c0.5-0.7,1.1-1.4,1.9-1.9
		C176,33.2,176.9,32.9,177.7,32.9z"/>
	<path id="Path_88" class="st0" d="M199.9,33v15.7c-0.1,0.9,0.2,1.8,0.6,2.5c0.6,0.6,1.4,0.9,2.2,0.8v0.8c-0.8-0.1-1.6-0.1-2.3-0.1
		c-0.7,0-1.4,0-2.1,0.1c-0.6,0.1-1.2,0.2-1.8,0.4v-4.4c-0.8,2.7-3.4,4.5-6.2,4.5c-0.8,0-1.6-0.1-2.3-0.4c-0.6-0.2-1.2-0.6-1.6-1.1
		c-0.5-0.5-0.8-1.2-1-2c-0.2-1-0.3-2-0.3-3v-9.5c0.1-0.9-0.1-1.7-0.6-2.5c-0.6-0.6-1.4-0.9-2.3-0.8v-0.8c0.8,0.1,1.6,0.1,2.3,0.1
		c0.7,0,1.4,0,2.1-0.1c0.6-0.1,1.2-0.2,1.8-0.4v14.8c0,0.7,0,1.4,0.1,2.1c0.1,0.6,0.3,1.2,0.8,1.6c0.5,0.5,1.3,0.7,2,0.6
		c1.5,0,2.8-0.7,3.7-2c1-1.4,1.5-3.1,1.4-4.8v-7.8c0.1-0.9-0.1-1.7-0.6-2.5c-0.6-0.6-1.4-0.9-2.3-0.8v-0.8c0.8,0.1,1.6,0.1,2.3,0.1
		c0.7,0,1.4,0,2.1-0.1C198.7,33.3,199.3,33.2,199.9,33z"/>
	<path id="Path_89" class="st0" d="M214.1,32.9c0.8,0,1.6,0.1,2.3,0.3c0.7,0.2,1.4,0.5,2,0.9c0.5,0.3,1,0.8,1.3,1.3
		c0.3,0.5,0.5,1,0.5,1.6c0,0.6-0.2,1.1-0.6,1.6c-0.4,0.4-0.9,0.6-1.4,0.5c-0.5,0-1-0.2-1.4-0.5c-0.4-0.3-0.7-0.9-0.6-1.4
		c0-0.5,0.1-1,0.5-1.4c0.3-0.3,0.7-0.6,1.1-0.7c-0.3-0.5-0.8-0.9-1.3-1.1c-0.6-0.3-1.3-0.5-2.1-0.5c-0.7,0-1.3,0.2-1.9,0.5
		c-0.7,0.4-1.3,0.9-1.7,1.5c-0.6,0.9-1,1.8-1.3,2.8c-0.4,1.5-0.5,3-0.5,4.5c-0.1,1.8,0.2,3.6,0.8,5.3c0.4,1.1,1.1,2.1,2,2.8
		c0.8,0.6,1.7,0.9,2.7,0.8c1.1,0,2.1-0.3,3-0.9c1.1-0.7,2-1.8,2.5-3l0.7,0.3c-0.3,0.9-0.7,1.7-1.2,2.4c-1.3,1.8-3.4,2.9-5.7,2.8
		c-1.5,0-3-0.4-4.2-1.2c-1.3-0.8-2.3-2-3-3.4c-0.8-1.7-1.2-3.5-1.1-5.3c0-1.9,0.3-3.7,1.1-5.4c0.7-1.5,1.8-2.8,3.1-3.7
		C210.9,33.3,212.5,32.9,214.1,32.9z"/>
	<path id="Path_90" class="st0" d="M232.1,32.9c1.9-0.1,3.8,0.6,5.2,2c1.2,1.3,1.9,3.4,1.9,6.3h-13.3l0-0.7h9.7
		c0.1-1.1,0-2.3-0.3-3.4c-0.2-0.9-0.6-1.8-1.2-2.5c-0.5-0.6-1.3-1-2.1-0.9c-1.2,0-2.4,0.7-3.1,1.7c-1,1.6-1.6,3.6-1.6,5.5l0.1,0.2
		c-0.1,0.4-0.1,0.8-0.1,1.2c0,0.5,0,0.9,0,1.4c0,1.5,0.2,3,0.8,4.4c0.5,1.1,1.2,2.1,2.2,2.8c0.8,0.6,1.8,0.9,2.8,1
		c1.1,0,2.2-0.3,3.1-0.8c1.1-0.7,1.9-1.7,2.4-2.9l0.8,0.3c-0.3,0.9-0.8,1.7-1.4,2.4c-0.6,0.8-1.5,1.4-2.4,1.9
		c-1,0.5-2.2,0.8-3.3,0.7c-1.6,0-3.3-0.4-4.6-1.2c-1.3-0.8-2.3-2-3-3.4c-0.7-1.6-1.1-3.3-1-5.1c0-2,0.3-3.9,1.1-5.7
		c0.6-1.5,1.6-2.8,3-3.7C229,33.3,230.5,32.9,232.1,32.9z"/>
	<path id="Path_91" class="st0" d="M264.5,25.6c1.4-0.1,2.7,0.2,4,0.7c1,0.5,1.9,1.1,2.8,1.7c0.2,0.2,0.5,0.3,0.8,0.4
		c0.5,0,0.8-0.8,0.9-2.3h0.9c0,0.9-0.1,2.1-0.1,3.4c0,1.3,0,3.1,0,5.3h-0.9c-0.2-1.1-0.4-2.1-0.6-3c-0.2-0.9-0.6-1.8-1.2-2.5
		c-0.8-1-1.7-1.7-2.9-2.2c-1.2-0.5-2.4-0.8-3.7-0.8c-1.2,0-2.4,0.3-3.4,0.9c-1.1,0.7-2,1.6-2.6,2.7c-0.8,1.3-1.3,2.7-1.7,4.2
		c-0.4,1.8-0.6,3.6-0.6,5.5c0,4.5,0.7,7.8,2.2,9.9c1.5,2.1,3.7,3.1,6.8,3.1c0.8,0,1.6-0.1,2.4-0.4c0.5-0.2,1.1-0.5,1.6-0.8
		c0.4-0.2,0.7-0.5,0.9-0.9c0.1-0.4,0.2-0.8,0.2-1.1v-3.6c0-0.8-0.1-1.6-0.3-2.3c-0.2-0.5-0.6-0.9-1.1-1c-0.8-0.2-1.6-0.3-2.4-0.3
		v-0.7c0.5,0,1,0,1.6,0.1l1.9,0c0.7,0,1.3,0,1.8,0c0.8,0,1.6,0,2.2,0s1.2,0,1.7-0.1v0.8c-0.8,0.1-1.4,0.2-1.6,0.6
		c-0.3,0.8-0.4,1.7-0.3,2.6v7.5h-0.8c0-0.5-0.1-0.9-0.3-1.4c-0.2-0.5-0.4-0.8-0.7-0.8c-0.2,0-0.3,0-0.5,0.1
		c-0.3,0.2-0.5,0.3-0.8,0.5c-0.8,0.6-1.7,1.1-2.6,1.5c-1,0.4-2.1,0.6-3.2,0.5c-3.9,0-6.9-1.2-9.1-3.6c-2.2-2.4-3.3-5.7-3.3-9.8
		c-0.1-2.6,0.5-5.2,1.6-7.6c1-2,2.4-3.7,4.3-5C260.1,26.2,262.3,25.6,264.5,25.6z"/>
	<path id="Path_92" class="st0" d="M281.5,48.5c1.4,0,2.5,1.1,2.5,2.4c0,1.4-1.1,2.5-2.4,2.5c-1.4,0-2.5-1.1-2.5-2.4
		c0-0.7,0.2-1.3,0.7-1.8C280.3,48.8,280.9,48.5,281.5,48.5z"/>
	<path id="Path_93" class="st0" d="M316,26.2c-0.1,1-0.2,1.9-0.2,2.8c0,0.9-0.1,1.6-0.1,2.1c0,0.6,0,1.2,0,1.7s0.1,1,0.1,1.4H315
		c-0.1-1.4-0.4-2.8-0.7-4.2c-0.2-0.9-0.8-1.7-1.6-2.2c-1.1-0.5-2.3-0.8-3.5-0.7h-2.4c-0.7,0-1.3,0-1.9,0.2c-0.4,0.1-0.8,0.4-0.9,0.9
		c-0.2,0.7-0.3,1.4-0.2,2.1v18.7c0,0.7,0.1,1.4,0.3,2c0.2,0.5,0.6,0.8,1.1,0.9c0.8,0.2,1.6,0.3,2.4,0.3v0.8
		c-0.7-0.1-1.5-0.1-2.5-0.1c-1,0-2,0-3,0c-1,0-1.9,0-2.7,0c-0.9,0-1.5,0-2.1,0.1v-0.8c0.7,0,1.3-0.1,1.9-0.3
		c0.4-0.1,0.8-0.5,0.9-0.9c0.2-0.7,0.3-1.3,0.2-2V30.2c0-0.7,0-1.4-0.2-2.1c-0.1-0.4-0.5-0.8-0.9-0.9c-0.6-0.2-1.3-0.3-1.9-0.3v-0.8
		c1.2,0,2.5,0.1,4,0.1s2.7,0,4,0h3c1.2,0,2.5,0,3.9,0C313.5,26.3,314.9,26.2,316,26.2z M310.2,39.4v0.8h-7.5v-0.8H310.2z
		 M310.9,34.5c-0.1,1.4-0.1,2.5-0.1,3.3s0,1.4,0,2.1c0,0.6,0,1.3,0,2.1s0.1,1.8,0.2,3.3h-0.9c-0.1-0.8-0.2-1.6-0.4-2.4
		c-0.1-0.7-0.4-1.4-0.9-1.9c-0.7-0.6-1.5-0.8-2.4-0.7v-0.8c0.9,0.1,1.7-0.2,2.3-0.9c0.4-0.6,0.7-1.3,0.8-2c0.1-0.8,0.2-1.5,0.3-2.1
		L310.9,34.5z"/>
	<path id="Path_94" class="st0" d="M322.7,53.1c-1.3,0.1-2.6-0.3-3.6-1.2c-0.8-0.9-1.2-2.1-1.1-3.3c0-0.9,0.2-1.9,0.8-2.6
		c0.5-0.7,1.2-1.3,2-1.7c0.8-0.4,1.7-0.8,2.5-1.1c0.9-0.3,1.7-0.6,2.5-0.9c0.7-0.2,1.4-0.6,2-1c0.5-0.3,0.8-0.9,0.8-1.4v-2.3
		c0-0.8-0.1-1.7-0.5-2.4c-0.3-0.5-0.7-0.9-1.3-1.1c-0.6-0.2-1.2-0.3-1.8-0.3c-0.7,0-1.4,0.1-2,0.3c-0.7,0.2-1.3,0.5-1.7,1.1
		c1.1,0.2,1.8,1.2,1.8,2.3c0,0.6-0.2,1.1-0.6,1.5c-0.4,0.4-1,0.6-1.5,0.5c-0.6,0-1.2-0.2-1.6-0.7c-0.3-0.5-0.5-1-0.5-1.6
		c0-0.6,0.1-1.1,0.5-1.6c0.4-0.4,0.8-0.8,1.2-1.1c0.7-0.5,1.4-0.8,2.2-1c1-0.3,2.1-0.4,3.1-0.4c0.9,0,1.8,0.1,2.6,0.4
		c0.7,0.2,1.3,0.6,1.8,1c0.6,0.6,1.1,1.4,1.3,2.2c0.2,1,0.3,2.1,0.3,3.1v10.5c0,0.5,0.1,0.9,0.3,1.3c0.2,0.3,0.5,0.5,0.9,0.4
		c0.3,0,0.6-0.1,0.9-0.2c0.3-0.2,0.5-0.3,0.8-0.6l0.4,0.6c-0.5,0.4-1,0.7-1.5,1c-0.6,0.3-1.3,0.4-1.9,0.4c-1,0.1-2-0.2-2.6-1
		c-0.4-0.7-0.7-1.5-0.6-2.3c-0.6,1.1-1.6,2.1-2.7,2.7C324.8,52.9,323.8,53.1,322.7,53.1z M324.3,51.6c0.8,0,1.6-0.2,2.2-0.7
		c0.8-0.6,1.5-1.3,2-2.2v-7.4c-0.4,0.6-1.1,1.1-1.8,1.3c-0.8,0.3-1.6,0.7-2.4,1.1c-0.8,0.4-1.6,0.9-2.2,1.6c-0.6,0.8-1,1.8-0.9,2.8
		c-0.1,0.9,0.2,1.9,0.9,2.6C322.8,51.3,323.5,51.6,324.3,51.6L324.3,51.6z"/>
	<path id="Path_95" class="st0" d="M343.3,59.9c-1.3,0-2.5-0.1-3.8-0.4c-1-0.2-2-0.7-2.8-1.3c-0.7-0.5-1.1-1.4-1.1-2.2
		c0-0.9,0.4-1.7,1.1-2.3c0.8-0.7,1.8-1.2,2.9-1.4l0.2,0.6c-0.6,0.2-1,0.6-1.3,1.1c-0.3,0.5-0.5,1.1-0.5,1.8c0,1.1,0.6,2.2,1.6,2.7
		c1.3,0.7,2.7,1,4.2,0.9c1.1,0,2.2-0.1,3.3-0.4c1-0.2,1.9-0.7,2.7-1.5c0.7-0.7,1.1-1.7,1.1-2.7c0-0.8-0.3-1.5-0.9-2.1
		c-0.6-0.5-1.8-0.8-3.5-0.8h-2.8c-0.8,0-1.6-0.1-2.3-0.2c-0.7-0.1-1.3-0.4-1.8-0.8c-0.5-0.5-0.8-1.2-0.7-1.8c0-0.9,0.4-1.8,1.1-2.5
		c1.1-1.1,2.4-1.9,3.9-2.4l0.5,0.3c-0.8,0.4-1.5,0.9-2.2,1.4c-0.6,0.4-0.9,1-0.9,1.6c0,0.8,0.6,1.2,1.8,1.2h4.7c1.4,0,2.9,0.3,4.1,1
		c1.2,0.7,1.9,2,1.8,3.4c0,1.2-0.4,2.4-1.1,3.3c-0.9,1.1-2,2-3.4,2.5C347.1,59.6,345.2,60,343.3,59.9z M343.5,44.8
		c-1.7,0.1-3.3-0.4-4.7-1.4c-2.5-2.5-2.5-6.5-0.1-9c0,0,0.1-0.1,0.1-0.1c2.8-1.9,6.5-1.9,9.4,0c2.5,2.5,2.5,6.5,0.1,9
		c0,0-0.1,0.1-0.1,0.1C346.8,44.4,345.2,44.9,343.5,44.8L343.5,44.8z M343.5,44.1c0.9,0,1.7-0.4,2.2-1.1c1.1-2.7,1.1-5.6,0-8.3
		c-0.9-1.2-2.6-1.5-3.9-0.6c-0.2,0.2-0.4,0.4-0.6,0.6c-0.6,0.8-0.8,2.1-0.8,4.1s0.3,3.4,0.8,4.1C341.8,43.7,342.6,44.2,343.5,44.1
		L343.5,44.1z M348.9,36l-0.7-0.3c0.4-0.9,1-1.7,1.8-2.3c0.8-0.6,1.7-1,2.7-1c0.6,0,1.1,0.2,1.6,0.5c0.4,0.4,0.6,1,0.6,1.6
		c0.1,0.6-0.2,1.2-0.6,1.6c-0.4,0.3-0.8,0.5-1.3,0.5c-0.4,0-0.8-0.1-1.1-0.4c-0.4-0.3-0.6-0.8-0.6-1.3c0-0.8,0.2-1.5,0.5-2.2
		l0.5,0.1c-0.8,0.3-1.6,0.7-2.3,1.3C349.7,34.8,349.2,35.4,348.9,36L348.9,36z"/>
	<path id="Path_96" class="st0" d="M365,32.9c1.9-0.1,3.8,0.6,5.2,2c1.2,1.3,1.9,3.4,1.9,6.3h-13.3l0-0.7h9.7c0.1-1.1,0-2.3-0.3-3.4
		c-0.2-0.9-0.6-1.8-1.2-2.5c-0.5-0.6-1.3-1-2.1-0.9c-1.2,0-2.4,0.7-3.1,1.7c-1,1.6-1.6,3.6-1.6,5.5l0.1,0.2
		c-0.1,0.4-0.1,0.8-0.1,1.2c0,0.5,0,0.9,0,1.4c0,1.5,0.2,3,0.8,4.4c0.5,1.1,1.2,2.1,2.2,2.8c0.8,0.6,1.8,0.9,2.8,1
		c1.1,0,2.2-0.3,3.1-0.8c1.1-0.7,1.9-1.7,2.4-2.9l0.8,0.3c-0.3,0.9-0.8,1.7-1.4,2.4c-0.6,0.8-1.5,1.4-2.4,1.9
		c-1,0.5-2.2,0.8-3.3,0.7c-1.6,0-3.3-0.4-4.6-1.2c-1.3-0.8-2.3-2-3-3.4c-0.7-1.6-1.1-3.3-1-5.1c0-2,0.3-3.9,1.1-5.7
		c0.6-1.5,1.7-2.8,3-3.7C361.9,33.3,363.4,32.9,365,32.9z"/>
	<path id="Path_97" class="st0" d="M380.9,23.3v26c-0.1,0.8,0.1,1.6,0.7,2.1c0.6,0.4,1.4,0.6,2.2,0.6v0.8c-0.4,0-1.1-0.1-1.9-0.1
		c-0.9,0-1.7-0.1-2.6-0.1c-0.9,0-1.7,0-2.6,0.1c-0.9,0-1.5,0.1-2,0.1V52c0.8,0.1,1.6-0.1,2.2-0.6c0.5-0.6,0.8-1.4,0.7-2.1V27.8
		c0.1-0.9-0.1-1.8-0.6-2.5c-0.6-0.6-1.4-0.9-2.3-0.8v-0.8c0.8,0.1,1.6,0.1,2.3,0.1c0.7,0,1.4,0,2.1-0.1
		C379.7,23.6,380.3,23.5,380.9,23.3z"/>
</g>
<g id="Group_59">
	<path id="Path_98" class="st0" d="M216.5,63.9c0.5,0,1,0.1,1.4,0.2c0.3,0.1,0.7,0.3,0.9,0.5c0.3,0.2,0.5,0.5,0.7,0.8
		c0.1,0.2,0.2,0.5,0.2,0.8c0,0.3-0.1,0.7-0.4,0.9c-0.2,0.2-0.6,0.3-0.9,0.3c-0.3,0-0.6-0.1-0.8-0.3c-0.2-0.2-0.4-0.5-0.4-0.8
		c0-0.3,0.1-0.6,0.3-0.9c0.2-0.2,0.5-0.4,0.9-0.4c-0.1-0.2-0.3-0.4-0.6-0.5c-0.4-0.2-0.8-0.2-1.2-0.2c-0.7,0-1.4,0.2-1.9,0.7
		c-0.5,0.5-0.8,1.3-0.7,2c0,0.4,0.1,0.9,0.2,1.3c0.2,0.5,0.5,0.9,0.9,1.3c0.3,0,0.5-0.1,0.8-0.1s0.5,0,0.6,0c0.6,0,0.9,0.2,0.9,0.5
		c0,0.1-0.1,0.3-0.2,0.3c-0.1,0.1-0.3,0.1-0.5,0.1c-0.3,0-0.6-0.1-0.9-0.2c-0.3-0.1-0.6-0.2-0.8-0.3c-0.8,0.2-1.6,0.7-2.1,1.3
		c-0.6,0.7-0.9,1.6-0.8,2.5c0,1,0.3,1.9,0.8,2.7c0.6,0.7,1.3,1.3,2.2,1.7c1,0.4,2,0.6,3.1,0.6c0.8,0,1.5-0.1,2.3-0.3
		c0.7-0.2,1.3-0.5,1.9-0.8c0.5-0.3,1-0.8,1.3-1.3c0.3-0.5,0.5-1.1,0.5-1.7c0-0.4-0.1-0.7-0.2-1.1c-0.1-0.5-0.4-0.9-0.8-1.3
		c-0.5-0.5-1.1-0.8-1.8-1l0.3-0.2c1,0.2,1.8,0.8,2.4,1.6c0.5,0.7,0.7,1.6,0.7,2.5c0,0.9-0.3,1.9-0.8,2.6c-0.6,0.9-1.4,1.6-2.4,2
		c-1.2,0.6-2.5,0.8-3.8,0.8c-1.2,0-2.5-0.2-3.6-0.7c-1.1-0.4-2-1.1-2.7-2c-0.7-0.9-1.1-1.9-1-3c0-0.7,0.1-1.5,0.5-2.1
		c0.3-0.6,0.7-1,1.2-1.4c0.4-0.4,0.9-0.7,1.4-0.9c0.4-0.2,0.8-0.3,1.1-0.4c-0.7-0.3-1.3-0.7-1.7-1.3c-0.4-0.5-0.6-1-0.6-1.6
		c0-0.4,0.1-0.7,0.3-1.1c0.2-0.4,0.4-0.7,0.7-0.9c0.4-0.3,0.8-0.5,1.2-0.6C215.4,63.9,216,63.9,216.5,63.9z M224.8,63.4
		c0.9,0,1.7,0.3,2.4,0.8c0.7,0.6,1,1.4,1,2.3c0,0.7-0.2,1.4-0.6,2c-0.4,0.5-0.9,0.9-1.5,1.2c-0.4,0.2-0.9,0.4-1.4,0.5
		c-0.6,0.2-1.2,0.4-1.8,0.6s-1.3,0.4-1.8,0.6c-0.6,0.2-1.1,0.4-1.4,0.5c-0.5,0.2-1,0.5-1.4,0.8c-0.4,0.3-0.6,0.7-0.6,1.2
		c0,0.4,0.1,0.7,0.3,1c0.2,0.3,0.5,0.5,0.8,0.6c0.3,0.1,0.6,0.2,0.9,0.2c0.3,0,0.5-0.1,0.8-0.1c0.3-0.1,0.5-0.2,0.6-0.4
		c-0.3-0.1-0.5-0.2-0.7-0.3c-0.2-0.2-0.4-0.5-0.4-0.8c0-0.3,0.1-0.6,0.4-0.9c0.2-0.2,0.6-0.3,0.9-0.3c0.3,0,0.6,0.1,0.9,0.3
		c0.2,0.2,0.3,0.6,0.3,0.9c0,0.4-0.1,0.8-0.4,1.1c-0.3,0.3-0.7,0.5-1.1,0.7c-0.4,0.1-0.8,0.2-1.2,0.2c-0.4,0-0.9-0.1-1.3-0.3
		c-0.4-0.2-0.8-0.5-1.1-0.9c-0.3-0.5-0.5-1-0.4-1.5c0-0.7,0.3-1.5,0.8-2c0.7-0.6,1.5-1.1,2.4-1.3c0.5-0.2,1-0.3,1.7-0.5
		c0.7-0.2,1.3-0.4,2-0.6c0.6-0.2,1.3-0.4,1.9-0.7c0.6-0.2,1.1-0.6,1.6-1.1c0.3-0.3,0.4-0.7,0.4-1.1c0-0.6-0.3-1.2-0.8-1.6
		c-0.5-0.4-1.2-0.7-1.9-0.7c-0.2,0-0.3,0-0.5,0c-0.1,0-0.2,0.1-0.2,0.2c0.2,0.1,0.4,0.3,0.5,0.5c0.1,0.2,0.2,0.4,0.2,0.6
		c0,0.3-0.1,0.6-0.4,0.8c-0.5,0.4-1.2,0.4-1.7,0c-0.3-0.2-0.4-0.5-0.4-0.9c0-0.4,0.1-0.7,0.4-0.9c0.3-0.2,0.6-0.4,1-0.5
		C224.1,63.5,224.5,63.4,224.8,63.4z"/>
	<path id="Path_99" class="st0" d="M240.9,63.6l5.6,14.4c0.1,0.5,0.4,0.9,0.8,1.2c0.2,0.2,0.5,0.3,0.8,0.3v0.5c-0.3,0-0.7,0-1.1-0.1
		c-0.4,0-0.9,0-1.3,0c-0.6,0-1.1,0-1.7,0c-0.5,0-0.9,0-1.3,0.1v-0.5c0.5,0,1.1-0.1,1.5-0.4c0.2-0.2,0.2-0.7-0.1-1.5l-4.2-11.3
		l0.4-0.3l-4,10.3c-0.3,0.6-0.4,1.3-0.5,1.9c0,0.4,0.2,0.8,0.5,1c0.5,0.2,1,0.3,1.5,0.3v0.5c-0.4,0-0.9,0-1.3-0.1s-0.9,0-1.3,0
		c-0.4,0-0.7,0-1,0c-0.2,0-0.5,0-0.7,0.1v-0.5c0.4-0.1,0.7-0.3,0.9-0.5c0.4-0.4,0.7-0.9,0.9-1.4l5.4-13.8L240.9,63.6L240.9,63.6z
		 M243.7,73.3v0.5h-6.8l0.2-0.5H243.7z"/>
	<path id="Path_100" class="st0" d="M252.7,67.8c0.5,0,1.1,0.1,1.6,0.3c0.3,0.1,0.6,0.3,0.9,0.5c0.5,0.4,0.8,0.1,0.9-0.8h0.5
		c0,0.4-0.1,0.9-0.1,1.5c0,0.6,0,1.4,0,2.4H256c-0.1-0.6-0.2-1.1-0.5-1.6c-0.2-0.5-0.5-1-1-1.3c-0.5-0.4-1.1-0.5-1.7-0.5
		c-0.5,0-1,0.1-1.3,0.4c-0.4,0.3-0.6,0.8-0.5,1.3c0,0.4,0.1,0.8,0.4,1.2c0.3,0.4,0.7,0.7,1.1,0.9c0.4,0.3,0.9,0.6,1.4,0.9
		c0.8,0.5,1.5,1.1,2.2,1.7c0.6,0.6,0.9,1.4,0.9,2.3c0,0.6-0.2,1.3-0.5,1.8c-0.4,0.5-0.9,0.8-1.4,1.1c-0.6,0.2-1.3,0.4-1.9,0.4
		c-0.3,0-0.6,0-0.9-0.1c-0.3-0.1-0.6-0.1-0.9-0.2c-0.2-0.1-0.3-0.2-0.5-0.3c-0.2-0.1-0.3-0.2-0.5-0.3c-0.1-0.1-0.3-0.1-0.4,0
		c0,0,0,0,0,0c-0.2,0.2-0.3,0.5-0.3,0.8h-0.5c0-0.5,0.1-1.1,0.1-1.8c0-0.7,0-1.6,0-2.8h0.5c0.1,0.8,0.2,1.5,0.5,2.2
		c0.2,0.6,0.5,1.1,0.9,1.5c0.5,0.4,1.1,0.6,1.8,0.5c0.5,0,1-0.2,1.4-0.5c0.5-0.4,0.7-1,0.7-1.7c0-0.6-0.3-1.2-0.7-1.6
		c-0.6-0.5-1.2-0.9-1.8-1.3c-0.5-0.3-1.1-0.7-1.5-1c-0.5-0.3-0.8-0.7-1.2-1.2c-0.6-1-0.6-2.3,0-3.3c0.3-0.4,0.7-0.8,1.2-1
		C251.5,67.9,252.1,67.8,252.7,67.8z"/>
	<path id="Path_101" class="st0" d="M262.9,67.8c0.5,0,1.1,0.1,1.6,0.3c0.3,0.1,0.6,0.3,0.9,0.5c0.5,0.4,0.8,0.1,0.9-0.8h0.5
		c0,0.4-0.1,0.9-0.1,1.5c0,0.6,0,1.4,0,2.4h-0.5c-0.1-0.6-0.2-1.1-0.5-1.6c-0.2-0.5-0.5-1-1-1.3c-0.5-0.4-1.1-0.5-1.7-0.5
		c-0.5,0-1,0.1-1.3,0.4c-0.4,0.3-0.6,0.8-0.5,1.3c0,0.4,0.1,0.8,0.4,1.2c0.3,0.4,0.7,0.7,1.1,0.9c0.4,0.3,0.9,0.6,1.4,0.9
		c0.8,0.5,1.5,1.1,2.2,1.7c0.6,0.6,0.9,1.4,0.9,2.3c0,0.6-0.2,1.3-0.5,1.8c-0.4,0.5-0.9,0.8-1.4,1.1c-0.6,0.2-1.3,0.4-1.9,0.4
		c-0.3,0-0.6,0-0.9-0.1c-0.3-0.1-0.6-0.1-0.9-0.2c-0.2-0.1-0.3-0.2-0.5-0.3c-0.2-0.1-0.3-0.2-0.5-0.3c-0.1-0.1-0.3-0.1-0.4,0
		c0,0,0,0,0,0c-0.2,0.2-0.3,0.5-0.3,0.8h-0.5c0-0.5,0.1-1.1,0.1-1.8c0-0.7,0-1.6,0-2.8h0.5c0.1,0.8,0.2,1.5,0.5,2.2
		c0.2,0.6,0.5,1.1,0.9,1.5c0.5,0.4,1.1,0.6,1.8,0.5c0.5,0,1-0.2,1.4-0.5c0.5-0.4,0.7-1,0.7-1.7c0-0.6-0.3-1.2-0.7-1.6
		c-0.6-0.5-1.2-0.9-1.8-1.3c-0.5-0.3-1.1-0.7-1.5-1c-0.5-0.3-0.8-0.7-1.2-1.2c-0.6-1-0.6-2.3,0-3.3c0.3-0.4,0.7-0.8,1.2-1
		C261.7,67.9,262.3,67.8,262.9,67.8z"/>
	<path id="Path_102" class="st0" d="M274.6,67.8c0.9,0,1.8,0.2,2.6,0.6c0.8,0.5,1.5,1.2,1.9,2c0.9,2.3,0.9,4.8,0,7.1
		c-0.4,0.8-1,1.5-1.9,2c-1.6,0.9-3.6,0.9-5.2,0c-0.8-0.5-1.5-1.2-1.9-2c-0.9-2.3-0.9-4.8,0-7.1c0.4-0.8,1.1-1.5,1.9-2
		C272.8,68,273.6,67.8,274.6,67.8z M274.6,68.3c-0.9,0-1.7,0.5-2.1,1.3c-1.1,2.8-1.1,6,0,8.8c0.6,1.2,2,1.7,3.2,1.1
		c0.5-0.2,0.9-0.6,1.1-1.1c1.1-2.8,1.1-6,0-8.8C276.3,68.8,275.5,68.3,274.6,68.3L274.6,68.3z"/>
	<path id="Path_103" class="st0" d="M287.2,67.8c0.5,0,1,0.1,1.4,0.2c0.4,0.1,0.9,0.3,1.2,0.5c0.3,0.2,0.6,0.5,0.8,0.8
		c0.2,0.3,0.3,0.6,0.3,1c0,0.3-0.1,0.7-0.3,0.9c-0.2,0.2-0.5,0.3-0.9,0.3c-0.3,0-0.6-0.1-0.9-0.3c-0.3-0.2-0.4-0.5-0.4-0.8
		c0-0.3,0.1-0.6,0.3-0.8c0.2-0.2,0.4-0.3,0.7-0.4c-0.2-0.3-0.5-0.5-0.8-0.7c-0.4-0.2-0.8-0.3-1.2-0.3c-0.4,0-0.8,0.1-1.1,0.3
		c-0.4,0.2-0.8,0.5-1,0.9c-0.4,0.5-0.6,1.1-0.8,1.7c-0.2,0.9-0.3,1.8-0.3,2.7c0,1.1,0.1,2.2,0.5,3.2c0.2,0.7,0.6,1.3,1.2,1.7
		c0.5,0.3,1,0.5,1.6,0.5c0.6,0,1.3-0.2,1.8-0.5c0.7-0.4,1.2-1.1,1.5-1.8l0.4,0.2c-0.2,0.5-0.4,1-0.8,1.5c-0.8,1.1-2.1,1.8-3.4,1.7
		c-0.9,0-1.8-0.2-2.6-0.7c-0.8-0.5-1.4-1.2-1.8-2.1c-0.5-1-0.7-2.1-0.7-3.2c0-1.1,0.2-2.3,0.7-3.3c0.4-0.9,1.1-1.7,1.9-2.2
		C285.2,68.1,286.2,67.8,287.2,67.8z"/>
	<path id="Path_104" class="st0" d="M296.3,67.9v9.9c-0.1,0.5,0.1,0.9,0.4,1.3c0.4,0.3,0.9,0.4,1.3,0.3v0.5c-0.3,0-0.7,0-1.2-0.1
		c-0.5,0-1.1,0-1.6,0c-0.5,0-1,0-1.6,0c-0.5,0-0.9,0-1.2,0.1v-0.5c0.5,0,0.9-0.1,1.3-0.3c0.3-0.4,0.5-0.8,0.4-1.3v-7.1
		c0-0.5-0.1-1.1-0.4-1.5c-0.4-0.4-0.9-0.6-1.4-0.5v-0.5c0.5,0,1,0.1,1.4,0.1c0.4,0,0.8,0,1.3-0.1C295.6,68.1,296,68,296.3,67.9z
		 M295.2,62.4c0.8,0,1.5,0.6,1.5,1.5s-0.6,1.5-1.5,1.5c-0.8,0-1.5-0.6-1.5-1.5c0-0.4,0.2-0.8,0.4-1.1
		C294.4,62.6,294.8,62.4,295.2,62.4L295.2,62.4z"/>
	<path id="Path_105" class="st0" d="M302.3,80c-0.8,0.1-1.6-0.2-2.2-0.7c-0.5-0.5-0.7-1.3-0.7-2c0-0.6,0.1-1.1,0.5-1.6
		c0.3-0.4,0.7-0.8,1.2-1c0.5-0.3,1-0.5,1.5-0.7c0.5-0.2,1.1-0.4,1.5-0.6c0.4-0.2,0.8-0.4,1.2-0.6c0.3-0.2,0.5-0.5,0.5-0.9v-1.4
		c0-0.5-0.1-1-0.3-1.5c-0.2-0.3-0.4-0.6-0.8-0.7c-0.3-0.1-0.7-0.2-1.1-0.2c-0.4,0-0.8,0.1-1.2,0.2c-0.4,0.1-0.8,0.3-1,0.7
		c0.6,0.1,1.1,0.7,1.1,1.4c0,0.3-0.1,0.7-0.4,0.9c-0.3,0.2-0.6,0.3-0.9,0.3c-0.4,0-0.7-0.1-1-0.4c-0.2-0.3-0.3-0.6-0.3-0.9
		c0-0.3,0.1-0.7,0.3-1c0.2-0.3,0.5-0.5,0.8-0.7c0.4-0.3,0.9-0.5,1.4-0.6c0.6-0.2,1.2-0.3,1.9-0.3c0.5,0,1.1,0.1,1.6,0.2
		c0.4,0.1,0.8,0.3,1.1,0.6c0.4,0.4,0.7,0.8,0.8,1.3c0.1,0.6,0.2,1.3,0.2,1.9v6.3c0,0.3,0,0.6,0.2,0.8c0.1,0.2,0.3,0.3,0.5,0.3
		c0.2,0,0.4,0,0.6-0.1c0.2-0.1,0.3-0.2,0.5-0.3l0.3,0.4c-0.3,0.2-0.6,0.4-0.9,0.6c-0.4,0.2-0.8,0.3-1.2,0.2
		c-0.6,0.1-1.2-0.2-1.6-0.6c-0.3-0.4-0.4-0.9-0.4-1.4c-0.4,0.7-0.9,1.3-1.7,1.6C303.6,79.9,303,80,302.3,80z M303.3,79.1
		c0.5,0,0.9-0.1,1.3-0.4c0.5-0.3,0.9-0.8,1.2-1.3v-4.5c-0.3,0.4-0.6,0.6-1.1,0.8c-0.5,0.2-1,0.4-1.5,0.7c-0.5,0.2-0.9,0.6-1.3,1
		c-0.4,0.5-0.6,1.1-0.5,1.7c0,0.6,0.1,1.1,0.5,1.6C302.4,79,302.8,79.1,303.3,79.1L303.3,79.1z"/>
	<path id="Path_106" class="st0" d="M314.3,64.3v3.8h3.4v0.5h-3.4v8.8c-0.1,0.5,0.1,1.1,0.4,1.5c0.3,0.3,0.7,0.5,1.1,0.4
		c0.5,0,0.9-0.2,1.2-0.6c0.4-0.6,0.7-1.2,0.9-1.9l0.5,0.1c-0.1,0.8-0.4,1.6-0.9,2.2c-0.5,0.6-1.3,1-2.1,0.9c-0.4,0-0.9-0.1-1.3-0.2
		c-0.3-0.1-0.6-0.3-0.9-0.6c-0.3-0.4-0.6-0.8-0.7-1.3c-0.1-0.6-0.2-1.3-0.2-1.9v-7.6H310v-0.5h2.2v-3.5c0.4,0,0.7,0,1.1-0.1
		C313.6,64.5,314,64.5,314.3,64.3z"/>
	<path id="Path_107" class="st0" d="M324.2,67.8c1.2-0.1,2.3,0.4,3.1,1.2c0.8,1.1,1.2,2.4,1.1,3.8h-8.1l0-0.4h5.9
		c0-0.7,0-1.4-0.2-2.1c-0.1-0.6-0.4-1.1-0.7-1.5c-0.3-0.4-0.8-0.6-1.3-0.6c-0.8,0-1.4,0.4-1.9,1c-0.6,1-1,2.2-1,3.3l0.1,0.1
		c0,0.2-0.1,0.5-0.1,0.8c0,0.3,0,0.5,0,0.8c0,0.9,0.1,1.8,0.5,2.7c0.3,0.7,0.7,1.3,1.3,1.7c0.5,0.4,1.1,0.6,1.7,0.6
		c0.7,0,1.3-0.2,1.9-0.5c0.7-0.4,1.2-1.1,1.5-1.8l0.5,0.2c-0.2,0.5-0.5,1-0.8,1.5c-0.4,0.5-0.9,0.9-1.4,1.2c-0.6,0.3-1.3,0.5-2,0.4
		c-1,0-2-0.2-2.8-0.8c-0.8-0.5-1.4-1.2-1.8-2.1c-0.4-1-0.6-2-0.6-3.1c0-1.2,0.2-2.4,0.6-3.5c0.4-0.9,1-1.7,1.8-2.2
		C322.3,68.1,323.3,67.8,324.2,67.8z"/>
	<path id="Path_108" class="st0" d="M334.3,67.8c0.5,0,1.1,0.1,1.6,0.3c0.3,0.1,0.6,0.3,0.9,0.5c0.5,0.4,0.8,0.1,0.9-0.8h0.5
		c0,0.4-0.1,0.9-0.1,1.5c0,0.6,0,1.4,0,2.4h-0.5c-0.1-0.6-0.2-1.1-0.5-1.6c-0.2-0.5-0.5-1-1-1.3c-0.5-0.4-1.1-0.5-1.7-0.5
		c-0.5,0-1,0.1-1.3,0.4c-0.4,0.3-0.6,0.8-0.5,1.3c0,0.4,0.1,0.8,0.4,1.2c0.3,0.4,0.7,0.7,1.1,0.9c0.4,0.3,0.9,0.6,1.4,0.9
		c0.8,0.5,1.5,1.1,2.2,1.7c0.6,0.6,0.9,1.4,0.9,2.3c0,0.6-0.2,1.3-0.5,1.8c-0.4,0.5-0.9,0.8-1.4,1.1c-0.6,0.2-1.3,0.4-1.9,0.4
		c-0.3,0-0.6,0-0.9-0.1c-0.3-0.1-0.6-0.1-0.9-0.2c-0.2-0.1-0.3-0.2-0.5-0.3c-0.2-0.1-0.3-0.2-0.5-0.3c-0.1-0.1-0.3-0.1-0.4,0
		c0,0,0,0,0,0c-0.2,0.2-0.3,0.5-0.3,0.8h-0.5c0-0.5,0.1-1.1,0.1-1.8c0-0.7,0-1.6,0-2.8h0.5c0.1,0.8,0.2,1.5,0.5,2.2
		c0.2,0.6,0.5,1.1,0.9,1.5c0.5,0.4,1.1,0.6,1.8,0.5c0.5,0,1-0.2,1.4-0.5c0.5-0.4,0.7-1,0.7-1.7c0-0.6-0.3-1.2-0.7-1.6
		c-0.6-0.5-1.2-0.9-1.8-1.3c-0.5-0.3-1.1-0.7-1.5-1c-0.5-0.3-0.8-0.7-1.2-1.2c-0.6-1-0.6-2.3,0-3.3c0.3-0.4,0.7-0.8,1.2-1
		C333.2,67.9,333.7,67.8,334.3,67.8z"/>
</g>
</svg>
