<?xml version="1.0" encoding="utf-8"?>
<!-- Generator: Adobe Illustrator 25.3.1, SVG Export Plug-In . SVG Version: 6.00 Build 0)  -->
<svg version="1.1" id="Layer_1" xmlns="http://www.w3.org/2000/svg" xmlns:xlink="http://www.w3.org/1999/xlink" x="0px" y="0px"
	 width="512px" height="512px" viewBox="0 0 512 512" style="enable-background:new 0 0 512 512;" xml:space="preserve">
<style type="text/css">
	.st0{fill:#FF0F17;}
	.st1{fill:#FFFFFF;}
</style>
<g>
	<circle class="st0" cx="257" cy="256.2" r="251.9"/>
	<path class="st1" d="M442.7,354.5l-52.4-222.6c13.4-4.5,22.2-17.4,21.5-31.6h-10.6c0,12-7.6,21.7-16.9,21.7s-16.9-9.7-16.9-21.7
		h-10.7c0,1.5,0.1,2.9,0.3,4.4h-84.4c-1.7-7.7-4.2-13.6-7.8-17.5c-3.3-3.6-7.9-5.6-12.8-5.5c-4.2-0.1-8.3,1.7-11.1,4.8
		c-2.8,3-4.9,7.5-6.5,13.1c-5.9-6-10.9-13.6-3.9-21.2c8-8.6,20.1-1.7,29.9-1.7c7.8,0,11.8,0.6,16.1-3c1.7-1.2,3.1-2.6,4.5-4.1
		c5.4,0.6,10.8,1.3,16.1,2.3c3.5,0.5,5-4.8,1.5-5.3v0c-4.6-0.9-9.3-1.5-13.9-2.1c1-1.8,1.9-3.8,2.4-5.8c0-27.2-42.2-19.6-54.7-16.9
		c-14.7,4.1-27.7,12.9-36.9,25.1c-7.2,11.8-12.4,22-10.5,36.5c0.1,0.5,0.2,0.9,0.2,1.3h-29.4c0.2-1.5,0.3-2.9,0.3-4.4h-10.7
		c0,11.7-7.6,21.3-16.9,21.3c-9.3,0-16.9-9.5-16.9-21.3h-10.6c-0.6,13.7,7.8,26.1,20.6,30.8L69.2,354.4l0.4,0.1H58.7
		c0,34.8,31,63.1,69.1,63.1c38.1,0,69.1-28.3,69.1-63.1h-12.6l-52.3-222.6c7.1-1.2,13.4-5.3,17.5-11.3h40.3
		c7.3,14.4,21.4,19.9,40.7,22.1c0.1,13.7,0.7,29.2,1.6,46.5c-4.6,0.5-10.3,2.8-13.2,3.9c-5.6,2.4-11,5.3-16.2,8.4
		c-7.4,4.1-14.1,9.5-15.1,16.4c-0.7,3.5-0.6,7,0.3,10.5c1.1,4,2.7,7.8,4.8,11.3c11.5,17.8,33.9,16.8,40.6,18.2
		c0.6,0.4,1.5,0.7,2.5,0.9c0.3,6.2,0.5,12.5,0.8,18.9c0.1,1.5,0.1,3,0.2,4.5c-7,1.5-13.9,3.3-20.7,5.5c-8.5,2.6-14.3,10.6-13.9,19.5
		c0,8,2.3,15.8,6.8,22.5c2.1,3.9,5,7.3,8.4,10.1c5.3,5.4,12,9.2,19.4,10.8c0.9,0.2,1.8,0.4,2.7,0.6c0.4,11.2,0.9,21.3,1.3,30.5
		c-5.4,3.2-9.9,7.7-12.8,13.2c-2.4,6.4-6,18.4-1.7,25c1.6,2.5,8.4,7.2,10.6,3.3c0.6-1,0.2-2.2,0.6-3.2c0.5-1.1,1.2-2.1,2-2.9
		c1-1.2,2-2.2,2.9-3.3c3.1,56.2,5.5,59.8,9.9,59.8c4.9,0,7.6-9.1,11.2-77.5c2.1-1.4,4.7-3.7,5.9-4.9c2.9-3.1,6.3-5.7,10.1-7.6
		c6.6-3.5,13.8-7,16.3-13.3c2-4.2,3.3-8.7,3.9-13.4c0.1-6.8-3.5-13.2-9.3-16.6c-4.6-3.8-9.5-7.2-14.7-10.3c-2.9-1.4-5.9-2.7-8.9-3.9
		c0.2-5.5,0.5-11.2,0.7-17.1c3-1,7.2-4,7.2-4c14.1-3.4,30.7-9.6,38.1-18.7c3.3-3.8,5.8-8.2,7.5-12.9c1.8-5.4,1.3-11.2-1.2-16.3
		c-2.4-3.1-5.3-5.9-8.6-8.2c-6.9-4.8-14.3-8.9-22.1-12.3c-5.4-2.9-11.2-5.1-17.1-6.5c0.4-6.2,0.8-12.3,1.2-18.4
		c0.4-5.9,0.7-11.6,1.1-17.2c4.5-0.6,8.8-2.3,12.5-5.1c4.1-2,8.1-4.3,11.8-6.9c7.3-6.6,11.9-15.6,13-25.4c1.6-9.5,2.3-20.6-5.6-27.1
		c-4.6-3.8-9.7-7-15.1-9.5h73c3.8,5.8,9.8,9.9,16.6,11.5l-52,222.2l0.5,0.1h-10.8c0,34.8,31,63.1,69.1,63.1
		c38.1,0,69.1-28.3,69.1-63.1L442.7,354.5z M257.8,42.1c-2-0.2-4-0.3-6-0.3c0.8-0.2,1.7-0.4,2.6-0.4
		C255.5,41.5,256.7,41.7,257.8,42.1z M251.8,41.8c-2.3,0.4-4,2.2-4.3,4.5c0,2.7,3.1,4.8,6.9,4.8c3.8,0,6.9-2.2,6.9-4.8
		c-0.2-2-1.6-3.6-3.5-4.2c11.7,1.2,22.6,6.1,23.5,13.1c0,0,0,0.1,0,0.1c0,0.3,0.1,0.6,0,0.9c0,2.7-0.6,5.3-1.7,7.7
		c-3.6-0.4-7.3-0.7-10.9-0.9c-1.5,0.1-2.7,1.4-2.6,2.9c0.1,1.4,1.2,2.6,2.6,2.6c2.5,0.1,4.9,0.4,7.3,0.6c-0.5,0.6-1,1.2-1.6,1.6
		c-5.2,3.7-10.5,1.5-16.9,0.6c-10.8-1.5-28.4,1.4-30-11.6C226.1,47.1,238.5,41.9,251.8,41.8z M121.8,354.5l-42.6,0l42.6-181.9V354.5
		z M174.3,354.5h-42.6V173.3L174.3,354.5z M239.1,212.3c-1.4-25.9-2.8-49.5-2.9-69.1c8.6,0.5,26.5,0.2,33.3,5.2
		c-0.4,18.2-1.7,39.6-3.2,63c-0.4,5.8-0.7,11.7-1.1,17.6c-6-0.8-11.9-2.3-17.8-3.5c-2.7-0.6-5.5-1-7.7-2
		C239.6,219.7,239.4,216,239.1,212.3z M245.1,90.5c1.8-2,4.3-3.1,6.9-3c3.3-0.1,6.4,1.2,8.6,3.6c2.8,2.9,4.7,7.6,6.1,13.5h-27
		c-0.2-0.2-0.4-0.3-0.6-0.5C240.5,98,242.4,93.3,245.1,90.5z M252,463.1c-2.7-15.1-4.9-57.9-7-110.6c3.1,0.8,6.1,1.7,9.1,2.8
		c1.8,0.8,3.5,1.8,5.2,2.8C257.1,407.4,254.7,448.4,252,463.1z M256,322.6c-3.8-1.3-9.2-4.8-12.4-8c-0.4-12.1-0.9-24.5-1.3-37l0,0
		c-0.2-6.1-0.5-12.1-0.7-18.1c0.8,0.1,1.6,0.2,2.2,0.3c4.4,0.7,8.7,1.8,13,3.1c2.6,0.6,4.9,2.2,6.4,4.4c-0.2,3.3-0.3,6.5-0.4,9.8
		c-0.6,15.8-1.3,31.6-1.9,47.1C259.2,323.7,257.6,323,256,322.6z M380.1,354.5h-42.6l42.6-182V354.5z M390,354.5V173.3l42.6,181.1
		H390z"/>
</g>
</svg>
