<svg id="Layer_1" data-name="Layer 1" xmlns="http://www.w3.org/2000/svg" viewBox="0 0 171.89 15.02">
  <defs>
    <style>
      .cls-1 {
        fill: #fff;
      }
    </style>
  </defs>
  <path class="cls-1" d="M43,4.19V11c0,.58.33.88,1,.88h.75V3.32H44C43.37,3.32,43,3.62,43,4.19Z" transform="translate(0 0)"/>
  <path class="cls-1" d="M48.73,9.11V.25H48c-.62,0-.95.3-.95.88v8a3.09,3.09,0,0,0,.45,1.73,2.43,2.43,0,0,0,1.08.95,1.14,1.14,0,0,0,.85.1.63.63,0,0,0,.52-.7v-.78a1.23,1.23,0,0,1-.8-.27A1.28,1.28,0,0,1,48.73,9.11Z" transform="translate(0 0)"/>
  <path class="cls-1" d="M57.93,4a4.43,4.43,0,0,0-2.81-1,4.3,4.3,0,0,0-2.81,1A3.25,3.25,0,0,0,51.06,6.6v2a3.12,3.12,0,0,0,1.25,2.53,4.13,4.13,0,0,0,2.81,1,3.64,3.64,0,0,0,2.61-.95,1,1,0,0,0,1,.7h.5V6.6A3.18,3.18,0,0,0,57.93,4Zm-.45,4.54a1.55,1.55,0,0,1-.63,1.26,2.82,2.82,0,0,1-1.75.57,2.71,2.71,0,0,1-1.76-.57,1.71,1.71,0,0,1-.62-1.26v-2a1.53,1.53,0,0,1,.62-1.25,2.69,2.69,0,0,1,1.76-.6,2.61,2.61,0,0,1,1.75.6,1.68,1.68,0,0,1,.63,1.25Z" transform="translate(0 0)"/>
  <path class="cls-1" d="M71.46,4.19l0,4.45A2,2,0,0,1,71,10.05a2,2,0,0,1-2.51,0A2,2,0,0,1,68,8.65V3.37h-.76c-.63,0-1,.3-1,.88V8.62A1.9,1.9,0,0,1,65.84,10a1.6,1.6,0,0,1-1.23.45A1.78,1.78,0,0,1,63.33,10a2,2,0,0,1-.42-1.41V3.34h-.75c-.63,0-.95.3-.95.88V8.59a3.5,3.5,0,0,0,.9,2.56A3.63,3.63,0,0,0,67.17,11a3.2,3.2,0,0,0,2.55,1.11,3.39,3.39,0,0,0,2.51-.95,3.46,3.46,0,0,0,.9-2.56V3.32h-.75a.81.81,0,0,0-.92.68A.6.6,0,0,0,71.46,4.19Z" transform="translate(0 0)"/>
  <path class="cls-1" d="M80.66,4l-2.28,6.42h0l-2.5-7H74.79a.46.46,0,0,0-.47.23.62.62,0,0,0,0,.53l2.51,7a1.33,1.33,0,0,0,1,.84l-.33.85a.67.67,0,0,1-.43.42,1.44,1.44,0,0,1-.57.13v.78a.63.63,0,0,0,.5.7,1.31,1.31,0,0,0,.87-.1,2.59,2.59,0,0,0,.95-.85,2.85,2.85,0,0,0,.28-.55c.07-.2.17-.4.25-.63l3.3-9.39-1.15,0A.86.86,0,0,0,80.66,4Z" transform="translate(0 0)"/>
  <path class="cls-1" d="M89.42,9.74c-.1.07-.15.15-.22.2a2.2,2.2,0,0,1-.8.35,3.65,3.65,0,0,1-1.23.07A2.2,2.2,0,0,1,86,10a1,1,0,0,1-.6-.95v-.7a.53.53,0,0,0,.27.13,1.22,1.22,0,0,0,.33,0h2a3.44,3.44,0,0,0,1.1-.15,2.68,2.68,0,0,0,1-.47,2.53,2.53,0,0,0,.73-.8,2.4,2.4,0,0,0,.27-1.26,2.46,2.46,0,0,0-.47-1.48,3.43,3.43,0,0,0-1-.88A5,5,0,0,0,87.42,3a4.52,4.52,0,0,0-2,.42A3,3,0,0,0,84,4.84a3.19,3.19,0,0,0-.27,1.25V8.85a3.35,3.35,0,0,0,.3,1.46A2.61,2.61,0,0,0,85,11.44a3.64,3.64,0,0,0,1.23.53,5.67,5.67,0,0,0,1.3.12,4.88,4.88,0,0,0,1.65-.27,3.66,3.66,0,0,0,1.45-.88,3.15,3.15,0,0,0,.63-.95l-.83-.4A.75.75,0,0,0,89.42,9.74Zm-4-3.69a1,1,0,0,1,.37-.8,2,2,0,0,1,.85-.4,5.19,5.19,0,0,1,1.3-.1,2.35,2.35,0,0,1,1.25.43.82.82,0,0,1,.33.78.91.91,0,0,1-.47.7,1.59,1.59,0,0,1-.83.2H85.41Z" transform="translate(0 0)"/>
  <path class="cls-1" d="M93.81,4a2.82,2.82,0,0,0-1,2.31V11c0,.58.33.88,1,.88h.75V6.29a1.24,1.24,0,0,1,.4-1,1.33,1.33,0,0,1,.8-.27H96c.6,0,.88-.32.88-.95V3.31h-1.1A2.85,2.85,0,0,0,93.81,4Z" transform="translate(0 0)"/>
  <path class="cls-1" d="M106.65,3.09a3.2,3.2,0,0,0-2.25.78l-.33.33a2.57,2.57,0,0,0-.33-.33,3.41,3.41,0,0,0-2.23-.78,3.26,3.26,0,0,0-2.5,1,3.5,3.5,0,0,0-.9,2.56V11c0,.57.32.88,1,.88h.75V6.6a2.13,2.13,0,0,1,.42-1.4,1.77,1.77,0,0,1,1.3-.43,1.63,1.63,0,0,1,1.26.47,1.94,1.94,0,0,1,.47,1.38V11c0,.58.32.88.95.88H105V6.6a1.9,1.9,0,0,1,.48-1.38,1.62,1.62,0,0,1,1.25-.48,1.75,1.75,0,0,1,1.28.43,1.86,1.86,0,0,1,.39,1.49V11c0,.57.32.87,1,.87h.75V6.63a3.58,3.58,0,0,0-.9-2.56A3.28,3.28,0,0,0,106.65,3.09Z" transform="translate(0 0)"/>
  <path class="cls-1" d="M118.71,4a4.33,4.33,0,0,0-2.8-1,4.28,4.28,0,0,0-2.81,1,3.25,3.25,0,0,0-1.25,2.56v2a3.09,3.09,0,0,0,1.25,2.53,4.13,4.13,0,0,0,2.81,1,3.71,3.71,0,0,0,2.6-.95,1,1,0,0,0,1,.7h.5V6.6A3.16,3.16,0,0,0,118.71,4Zm-.42,4.54a1.52,1.52,0,0,1-.63,1.26,2.76,2.76,0,0,1-1.75.57,2.71,2.71,0,0,1-1.75-.57,1.72,1.72,0,0,1-.63-1.26v-2a1.54,1.54,0,0,1,.63-1.25,2.82,2.82,0,0,1,3.5,0,1.68,1.68,0,0,1,.63,1.25Z" transform="translate(0 0)"/>
  <path class="cls-1" d="M123,4a2.82,2.82,0,0,0-1,2.31V11c0,.58.33.88,1,.88h.75V6.29a1.3,1.3,0,0,1,.4-1,1.35,1.35,0,0,1,.8-.27h.23c.6,0,.88-.32.88-.95V3.31h-1.1A2.84,2.84,0,0,0,123,4Z" transform="translate(0 0)"/>
  <path class="cls-1" d="M132.23,7.12c.1-.13.2-.3.32-.48l2-3.31h-1.33a1.18,1.18,0,0,0-1,.6l-1.6,2.62c-.2.35-.52.32-.85.32h-.63V.28h-.75c-.62,0-.95.3-.95.87h0V11c0,.58.33.88.95.88h.75V8.57H131a.94.94,0,0,1,.95.63l.93,2.11a1,1,0,0,0,1,.53H135L133.5,8.53A2.55,2.55,0,0,0,132.23,7.12Z" transform="translate(0 0)"/>
  <path class="cls-1" d="M141.69,9.74c-.1.07-.15.15-.23.2a2.13,2.13,0,0,1-.8.35,3.62,3.62,0,0,1-1.23.07,2.25,2.25,0,0,1-1.15-.33,1.05,1.05,0,0,1-.6-.95v-.7a.6.6,0,0,0,.28.13,1.17,1.17,0,0,0,.32,0h2.06a3.44,3.44,0,0,0,1.1-.15,2.68,2.68,0,0,0,1-.47,2.53,2.53,0,0,0,.73-.8,2.4,2.4,0,0,0,.27-1.26A2.46,2.46,0,0,0,143,4.37a3.47,3.47,0,0,0-1.06-.88A5,5,0,0,0,139.69,3a4.52,4.52,0,0,0-2,.42,3,3,0,0,0-1.43,1.38A3,3,0,0,0,136,6.09V8.85a3.35,3.35,0,0,0,.3,1.46,2.54,2.54,0,0,0,.95,1.13,3.64,3.64,0,0,0,1.23.53,5.62,5.62,0,0,0,1.3.12,4.88,4.88,0,0,0,1.65-.27,3.73,3.73,0,0,0,1.45-.88,3.57,3.57,0,0,0,.63-.95l-.83-.4A.75.75,0,0,0,141.69,9.74Zm-4-3.69a1,1,0,0,1,.38-.8,2,2,0,0,1,.85-.4,5.15,5.15,0,0,1,1.3-.1,2.35,2.35,0,0,1,1.25.43.84.84,0,0,1,.33.78.9.9,0,0,1-.48.7,1.56,1.56,0,0,1-.82.2h-2.81Z" transform="translate(0 0)"/>
  <path class="cls-1" d="M146.9.25h-.77c-.63,0-.93.3-.93.88v8a3.31,3.31,0,0,0,.43,1.74,2.53,2.53,0,0,0,1.07.95,1.27,1.27,0,0,0,.88.1.65.65,0,0,0,.5-.7v-.78a1.16,1.16,0,0,1-1.18-1.28V5H148c.58,0,.88-.32.88-1V3.31h-2Z" transform="translate(0 0)"/>
  <path class="cls-1" d="M160.82,4a4.17,4.17,0,0,0-2.71-1,4,4,0,0,0-2.68,1,3,3,0,0,0-1.17,2.44v4.51c0,.58.32.88,1,.88H156V6.43a1.47,1.47,0,0,1,.58-1.14,2.63,2.63,0,0,1,3.21,0,1.48,1.48,0,0,1,.57,1.14v4.51c0,.58.32.88,1,.88H162V6.43A3.13,3.13,0,0,0,160.82,4Z" transform="translate(0 0)"/>
  <path class="cls-1" d="M170.63,4a4.53,4.53,0,0,0-2.78-1A4.32,4.32,0,0,0,165,4a3.28,3.28,0,0,0-1.25,2.56v2A3.2,3.2,0,0,0,165,11.09a4.23,4.23,0,0,0,2.81,1,4.36,4.36,0,0,0,2.38-.68v.33A1.41,1.41,0,0,1,169,13.19a4.71,4.71,0,0,1-1.5.18,3.7,3.7,0,0,1-1.5-.28l-.14.68a.82.82,0,0,0,0,.7,1.18,1.18,0,0,0,.78.43A7.07,7.07,0,0,0,168,15a4.88,4.88,0,0,0,1.47-.2,3.35,3.35,0,0,0,2.13-1.65,2.87,2.87,0,0,0,.33-1.41V6.6A3.22,3.22,0,0,0,170.63,4Zm-.45,4.54a1.52,1.52,0,0,1-.63,1.26,2.82,2.82,0,0,1-1.75.57,2.71,2.71,0,0,1-1.75-.57,1.72,1.72,0,0,1-.63-1.26v-2a1.54,1.54,0,0,1,.63-1.25,2.64,2.64,0,0,1,1.75-.6,2.59,2.59,0,0,1,1.75.6,1.7,1.7,0,0,1,.63,1.25Z" transform="translate(0 0)"/>
  <path class="cls-1" d="M43.87,1.66A.83.83,0,1,0,43,.83.83.83,0,0,0,43.87,1.66Z" transform="translate(0 0)"/>
  <path class="cls-1" d="M150.37,4.27v6.78c0,.57.32.88.95.88h.75V3.39h-.75C150.69,3.39,150.37,3.69,150.37,4.27Z" transform="translate(0 0)"/>
  <path class="cls-1" d="M151.16,1.73A.83.83,0,0,0,152,.9a.8.8,0,0,0-.77-.83h-.06a.84.84,0,0,0-.82.83A.83.83,0,0,0,151.16,1.73Z" transform="translate(0 0)"/>
  <path class="cls-1" d="M4.35,6.9a11.28,11.28,0,0,0-1.17-.48c-.45-.16-.77-.29-1-.39a1.39,1.39,0,0,1-.48-.32.63.63,0,0,1-.16-.44.68.68,0,0,1,.28-.57,1.19,1.19,0,0,1,.77-.21,1.48,1.48,0,0,1,1,.31A.94.94,0,0,1,4,5.55v.08a.12.12,0,0,0,0,.09.11.11,0,0,0,.08,0h1.2a.14.14,0,0,0,.09,0,.16.16,0,0,0,0-.09V5.47a2.06,2.06,0,0,0-.34-1.18,2.44,2.44,0,0,0-1-.79,3.42,3.42,0,0,0-1.41-.28,3.35,3.35,0,0,0-1.33.25,2,2,0,0,0-.9.73A1.87,1.87,0,0,0,.1,5.3,1.72,1.72,0,0,0,.43,6.37a2.48,2.48,0,0,0,.82.69,8.14,8.14,0,0,0,1.18.49c.42.16.73.28.92.37a1.37,1.37,0,0,1,.45.3A.63.63,0,0,1,4,8.65a.76.76,0,0,1-.27.58,1.24,1.24,0,0,1-.83.23,1.77,1.77,0,0,1-1-.28.89.89,0,0,1-.39-.71V8.31s0-.06,0-.09a.14.14,0,0,0-.09,0H.12a.11.11,0,0,0-.08,0,.12.12,0,0,0,0,.09v.23A2,2,0,0,0,.34,9.7a2.14,2.14,0,0,0,1,.76,3.47,3.47,0,0,0,1.46.26,3.05,3.05,0,0,0,2-.57,1.85,1.85,0,0,0,.72-1.56,1.61,1.61,0,0,0-.34-1.07A2.19,2.19,0,0,0,4.35,6.9Z" transform="translate(0 0)"/>
  <path class="cls-1" d="M8.57,3.31H7.34a.12.12,0,0,0-.12.12h0v7.09a.11.11,0,0,0,0,.09.11.11,0,0,0,.08,0H8.57a.11.11,0,0,0,.08,0,.12.12,0,0,0,0-.09V3.43a.12.12,0,0,0,0-.09A.11.11,0,0,0,8.57,3.31Z" transform="translate(0 0)"/>
  <path class="cls-1" d="M15.56,3.31H10.28a.12.12,0,0,0-.12.12h0v1a.12.12,0,0,0,0,.09.18.18,0,0,0,.09,0H12.1s.05,0,.06,0h0v5.87a.12.12,0,0,0,0,.09s.06,0,.09,0H13.5a.09.09,0,0,0,.09,0,.13.13,0,0,0,0-.09V4.63s0,0,0,0h1.88a.1.1,0,0,0,.09,0,.08.08,0,0,0,0-.08v-1s0-.06,0-.09A.11.11,0,0,0,15.56,3.31Z" transform="translate(0 0)"/>
  <path class="cls-1" d="M22.1,3.31H17.27a.12.12,0,0,0-.12.12h0v7.08s0,.06,0,.09a.14.14,0,0,0,.09,0H22.1a.12.12,0,0,0,.09,0,.18.18,0,0,0,0-.09v-1a.18.18,0,0,0,0-.09.12.12,0,0,0-.09,0H18.67s-.05,0-.05,0h0V7.62s0,0,0,0h2.27a.12.12,0,0,0,.08,0,.1.1,0,0,0,0-.09v-1a.1.1,0,0,0,0-.09.12.12,0,0,0-.08,0H18.68s-.05,0-.06,0h0V4.63a.07.07,0,0,1,0-.06h3.45a.08.08,0,0,0,.08,0,.11.11,0,0,0,0-.09v-1a.12.12,0,0,0-.12-.12Z" transform="translate(0 0)"/>
  <path class="cls-1" d="M30.74,6.88s0,0,0-.06a1.54,1.54,0,0,0,.89-1.5c0-1.34-.83-2-2.48-2H26.52a.12.12,0,0,0-.12.11h0v7.1a.14.14,0,0,0,0,.09.16.16,0,0,0,.09,0h2.71A2.91,2.91,0,0,0,31,10.13a1.79,1.79,0,0,0,.69-1.53A1.78,1.78,0,0,0,30.74,6.88ZM27.87,4.63a.06.06,0,0,1,.05-.06h1.23a1.17,1.17,0,0,1,.76.24.83.83,0,0,1,.27.65.76.76,0,0,1-.27.62,1.17,1.17,0,0,1-.76.24H27.92s-.05,0-.05,0V4.63ZM30,9.12a1.06,1.06,0,0,1-.76.25H27.92s-.05,0-.05,0V7.57a.05.05,0,0,1,0-.05h1.31a1.09,1.09,0,0,1,.77.25.84.84,0,0,1,.26.67.82.82,0,0,1-.27.68Z" transform="translate(0 0)"/>
  <path class="cls-1" d="M38.38,3.31H37a.15.15,0,0,0-.14.1L35.59,6.19s0,0-.06,0L34.22,3.41a.13.13,0,0,0-.15-.1H32.75c-.07,0-.11,0-.11.08a.14.14,0,0,0,0,.06L34.83,7.8v2.71a.18.18,0,0,0,0,.09.14.14,0,0,0,.09,0h1.21a.1.1,0,0,0,.09,0,.12.12,0,0,0,0-.08V7.86s0,0,0-.06l2.18-4.35a.09.09,0,0,0,0-.1A.13.13,0,0,0,38.38,3.31Z" transform="translate(0 0)"/>
</svg>
