<svg xmlns="http://www.w3.org/2000/svg" xmlns:xlink="http://www.w3.org/1999/xlink" width="45.202" height="45.202" viewBox="0 0 45.202 45.202">
  <defs>
    <linearGradient id="linear-gradient" x1="0.5" x2="0.5" y2="1" gradientUnits="objectBoundingBox">
      <stop offset="0" stop-color="#ff0f17"/>
      <stop offset="1" stop-color="#ba0006"/>
    </linearGradient>
  </defs>
  <path id="ico-birth" d="M-96.1,116.341a22.627,22.627,0,0,0-22.6,22.6,22.626,22.626,0,0,0,22.6,22.6,22.626,22.626,0,0,0,22.6-22.6A22.626,22.626,0,0,0-96.1,116.341Zm0,43.4a20.824,20.824,0,0,1-20.8-20.8,20.824,20.824,0,0,1,20.8-20.8,20.733,20.733,0,0,1,6.1.914,6.781,6.781,0,0,0-.656,3.76,7.411,7.411,0,0,0,1.413,3.072,6.357,6.357,0,0,1,1.434,3.855c0,1.174-.827,2.863-2.33,4.756-.217.274-.452.553-.7.836-.011-.008-.019-.017-.031-.025a2.726,2.726,0,0,0-3.456.363l-1.658,1.7a1.078,1.078,0,0,1-.764.322H-98.1c.051-.084.11-.176.177-.28a6.987,6.987,0,0,0,1.276-4.25,6.77,6.77,0,0,0-2.489-5.254,6.838,6.838,0,0,0-5.7-1.393,6.719,6.719,0,0,0-5.371,7.143,7.255,7.255,0,0,0,1.064,3.215,8.083,8.083,0,0,1,1.159,4.451,12.243,12.243,0,0,0,3.141,8.346,11.965,11.965,0,0,0,9.087,3.727,10.343,10.343,0,0,0,7.906-3.106,8.641,8.641,0,0,0,2.367-5.695v-1.41a4.922,4.922,0,0,0,3.175,1.336,2.11,2.11,0,0,0,1.976-.891c.645-1.092-.125-2.491-1.018-4.112l-.268-.49a7.583,7.583,0,0,0-2.642-2.83,4.7,4.7,0,0,0-3.725-.658,3.8,3.8,0,0,0-1.031.448c.1-.12.2-.24.3-.357h0c1.808-2.277,2.724-4.258,2.724-5.887a8.058,8.058,0,0,0-1.746-4.874,5.832,5.832,0,0,1-1.122-2.327,5.179,5.179,0,0,1,.572-2.872,20.83,20.83,0,0,1,12.986,19.272A20.823,20.823,0,0,1-96.1,159.742Zm8.8-15.147a6.777,6.777,0,0,1-1.878,4.454,8.579,8.579,0,0,1-6.574,2.528,10.189,10.189,0,0,1-7.748-3.141,10.427,10.427,0,0,1-2.661-7.113,9.873,9.873,0,0,0-1.38-5.322,5.516,5.516,0,0,1-.847-2.465,4.918,4.918,0,0,1,3.915-5.238,5.2,5.2,0,0,1,1.028-.1,4.966,4.966,0,0,1,3.158,1.12,4.95,4.95,0,0,1,1.823,3.846,5.248,5.248,0,0,1-.989,3.268,3.332,3.332,0,0,0-.7,1.849v.331a.9.9,0,0,0,.9.9h2.506a2.9,2.9,0,0,0,2.064-.868l1.659-1.7a.9.9,0,0,1,1.145-.12.906.906,0,0,1,.395.631.9.9,0,0,1-.214.712l-2.739,3.147a3.04,3.04,0,0,1-2.294,1.045h-2.513a.917.917,0,0,0-.9.919.9.9,0,0,0,.9.9h2.513a4.854,4.854,0,0,0,3.668-1.67l1.809-2.078a22.006,22.006,0,0,0-.161,2.838.917.917,0,0,0,.919.9.9.9,0,0,0,.9-.9,12.79,12.79,0,0,1,.571-4.416,2.215,2.215,0,0,1,1.522-1.555,2.931,2.931,0,0,1,2.3.455,5.73,5.73,0,0,1,1.991,2.145l.274.5A9.846,9.846,0,0,1-81.9,142.66a1.564,1.564,0,0,1-.412.042c-1.5,0-2.894-1.761-3.32-2.462a.89.89,0,0,0-1.012-.394.921.921,0,0,0-.663.886Z" transform="translate(118.706 -116.341)" fill="url(#linear-gradient)"/>
</svg>
