<svg xmlns="http://www.w3.org/2000/svg" xmlns:xlink="http://www.w3.org/1999/xlink" width="38.175" height="42.43" viewBox="0 0 38.175 42.43">
  <defs>
    <linearGradient id="linear-gradient" x1="0.5" x2="0.5" y2="1" gradientUnits="objectBoundingBox">
      <stop offset="0" stop-color="#ff0f17"/>
      <stop offset="1" stop-color="#ba0006"/>
    </linearGradient>
  </defs>
  <path id="ico-cerebal" d="M295.851,279.619a5.917,5.917,0,0,0-3.689-5.2,5.779,5.779,0,0,0-.327-4.931,7.338,7.338,0,0,0-4.848-2.942,5.7,5.7,0,0,0-3.964-5.728,7.657,7.657,0,0,0-6.254.717,7.657,7.657,0,0,0-6.253-.717,5.7,5.7,0,0,0-3.965,5.728,7.337,7.337,0,0,0-4.847,2.942,5.777,5.777,0,0,0-.327,4.931,5.918,5.918,0,0,0-3.689,5.2,5.179,5.179,0,0,0,2.512,4.751,5.222,5.222,0,0,0-1.5,5.96,4.854,4.854,0,0,0,4.162,2.935,4.564,4.564,0,0,0,.741,3.866,4.473,4.473,0,0,0,4.352,2,4.7,4.7,0,0,0,3.605,3.52,8.032,8.032,0,0,0,1.746.2,7.223,7.223,0,0,0,3.46-.861,7.218,7.218,0,0,0,3.461.861,8.058,8.058,0,0,0,1.746-.194,4.7,4.7,0,0,0,3.607-3.52,4.484,4.484,0,0,0,4.352-2,4.559,4.559,0,0,0,.74-3.866,4.855,4.855,0,0,0,4.162-2.935,5.221,5.221,0,0,0-1.5-5.96A5.176,5.176,0,0,0,295.851,279.619Zm-23.875,21.17a2.956,2.956,0,0,1-2.288-2.9.952.952,0,0,0-1.377-.854,2.457,2.457,0,0,1-3.146-1,2.429,2.429,0,0,1-.014-3.058,4.556,4.556,0,0,1,3.725.226,3.285,3.285,0,0,1,1.273,2.169.952.952,0,0,0,.946.86c.029,0,.059,0,.088,0a.953.953,0,0,0,.862-1.035,5.187,5.187,0,0,0-2.081-3.554c-1.4-.953-3.283-1.1-5.6-.426a3.156,3.156,0,0,1-3.919-1.647c-.55-1.266-.3-3.12,2.041-4.55a4.225,4.225,0,0,1,5.11,1.759c.005.007.012.012.017.02s0,.009.007.014a.855.855,0,0,0,.078.084.987.987,0,0,0,.07.075.91.91,0,0,0,.112.078.9.9,0,0,0,.078.051.923.923,0,0,0,.14.054c.025.008.047.02.072.026a.979.979,0,0,0,.225.028.958.958,0,0,0,.277-.043c.029-.009.056-.028.084-.039a.944.944,0,0,0,.161-.075c.005,0,.008-.009.014-.014a.181.181,0,0,0,.02-.01c5.111-3.682,2.654-7.676,2.628-7.716a.946.946,0,0,0-1.3-.292.957.957,0,0,0-.31,1.306c.145.239,1.23,2.259-1.414,4.586a6.137,6.137,0,0,0-6.49-1.757,3.437,3.437,0,0,1-2.473-3.449,4.032,4.032,0,0,1,3.184-3.732c1.068-.071,9.3-.822,9.937-6.992a.952.952,0,0,0-1.894-.2c-.413,3.979-5.674,4.991-7.569,5.227a4.1,4.1,0,0,1,.078-3.529c1.164-1.918,4.341-2.187,4.371-2.189a.957.957,0,0,0,.851-1.191,3.781,3.781,0,0,1,2.66-4.513,5.818,5.818,0,0,1,4.609.593v37.156A5.534,5.534,0,0,1,271.976,300.789Zm21.116-11.22a3.163,3.163,0,0,1-3.919,1.648c-2.313-.671-4.2-.527-5.6.426A5.184,5.184,0,0,0,281.5,295.2a.948.948,0,0,0,.855,1.03.8.8,0,0,0,.094.005.956.956,0,0,0,.946-.855,3.284,3.284,0,0,1,1.273-2.171,4.556,4.556,0,0,1,3.725-.226,2.429,2.429,0,0,1-.014,3.058,2.461,2.461,0,0,1-3.147,1,.952.952,0,0,0-1.377.854,2.965,2.965,0,0,1-2.288,2.9,5.554,5.554,0,0,1-3.842-.45V263.18a5.786,5.786,0,0,1,4.609-.59,3.78,3.78,0,0,1,2.663,4.506.953.953,0,0,0,.847,1.2c.032,0,3.209.271,4.373,2.19a4.1,4.1,0,0,1,.078,3.529c-1.894-.236-7.156-1.248-7.569-5.227a.952.952,0,0,0-1.894.2c.641,6.17,8.869,6.921,9.937,6.992a4.034,4.034,0,0,1,3.185,3.732,3.437,3.437,0,0,1-2.473,3.449,6.135,6.135,0,0,0-6.49,1.757c-2.645-2.327-1.56-4.346-1.421-4.576a.952.952,0,1,0-1.606-1.023c-.026.04-2.483,4.034,2.628,7.716a.138.138,0,0,0,.02.01c.005,0,.008.01.014.014a.91.91,0,0,0,.16.075c.029.012.055.03.084.039a.96.96,0,0,0,.278.043.973.973,0,0,0,.224-.028c.025-.007.049-.019.073-.027a.944.944,0,0,0,.139-.052c.028-.015.054-.036.081-.054a.84.84,0,0,0,.109-.076.9.9,0,0,0,.071-.077.926.926,0,0,0,.076-.083s0-.009.007-.014.012-.012.017-.02a4.272,4.272,0,0,1,5.114-1.757C293.387,286.451,293.641,288.3,293.091,289.569Z" transform="translate(-257.682 -260.413)" fill="url(#linear-gradient)"/>
</svg>
