<svg xmlns="http://www.w3.org/2000/svg" xmlns:xlink="http://www.w3.org/1999/xlink" width="42.969" height="42.969" viewBox="0 0 42.969 42.969">
  <defs>
    <linearGradient id="linear-gradient" x1="0.5" x2="0.5" y2="1" gradientUnits="objectBoundingBox">
      <stop offset="0" stop-color="#ff0f17"/>
      <stop offset="1" stop-color="#ba0006"/>
    </linearGradient>
  </defs>
  <g id="ico-death" transform="translate(82.612 -288.119)">
    <path id="Path_32" data-name="Path 32" d="M-58.786,288.119a21.359,21.359,0,0,0-12.279,3.853.987.987,0,0,0-.244,1.374.987.987,0,0,0,1.374.246,19.386,19.386,0,0,1,11.15-3.5A19.533,19.533,0,0,1-39.275,309.6a19.5,19.5,0,0,1-4.845,12.869.987.987,0,0,0,.091,1.393.983.983,0,0,0,.651.245.983.983,0,0,0,.742-.336A21.469,21.469,0,0,0-37.3,309.6,21.509,21.509,0,0,0-58.786,288.119Z" transform="translate(-2.342)" fill="url(#linear-gradient)"/>
    <path id="Path_33" data-name="Path 33" d="M-49.977,327.477a19.389,19.389,0,0,1-11.15,3.5,19.533,19.533,0,0,1-19.511-19.511A19.491,19.491,0,0,1-75.793,298.6a.986.986,0,0,0-.09-1.393.987.987,0,0,0-1.393.09,21.466,21.466,0,0,0-5.336,14.171,21.509,21.509,0,0,0,21.484,21.484A21.364,21.364,0,0,0-48.848,329.1a.987.987,0,0,0,.245-1.374A.988.988,0,0,0-49.977,327.477Z" transform="translate(0 -1.86)" fill="url(#linear-gradient)"/>
    <path id="Path_34" data-name="Path 34" d="M-46.643,306.7h-7.212v-7.212a.986.986,0,0,0-.987-.987h-8.2a.986.986,0,0,0-.987.987V306.7H-71.24a.987.987,0,0,0-.987.987v8.2a.987.987,0,0,0,.987.987h7.212v7.212a.986.986,0,0,0,.987.987h8.2a.986.986,0,0,0,.987-.987v-7.212h7.212a.986.986,0,0,0,.987-.987v-8.2A.986.986,0,0,0-46.643,306.7Zm-.987,8.2h-7.212a.987.987,0,0,0-.987.987V323.1h-6.225v-7.212a.987.987,0,0,0-.987-.987h-7.212v-6.225h7.212a.987.987,0,0,0,.987-.987v-7.212h6.225v7.212a.987.987,0,0,0,.987.987h7.212Z" transform="translate(-2.186 -2.186)" fill="url(#linear-gradient)"/>
  </g>
</svg>
