<svg xmlns="http://www.w3.org/2000/svg" xmlns:xlink="http://www.w3.org/1999/xlink" width="38.495" height="45.202" viewBox="0 0 38.495 45.202">
  <defs>
    <linearGradient id="linear-gradient" x1="0.5" x2="0.5" y2="1" gradientUnits="objectBoundingBox">
      <stop offset="0" stop-color="#ff0f17"/>
      <stop offset="1" stop-color="#ba0006"/>
    </linearGradient>
  </defs>
  <g id="ico-medmal" transform="translate(-155.856 -353)">
    <path id="Path_15" data-name="Path 15" d="M186.523,401.807h-1.186c-.023,0-.045,0-.068,0h-2.6a.851.851,0,0,0-.715.39l-1.72,2.668-1.721-2.669a.851.851,0,0,0-.715-.39h0l-3.85,0a3.505,3.505,0,0,0-3.5,3.5v9.213a.851.851,0,0,0,1.7,0v-9.213a1.8,1.8,0,0,1,1.8-1.8l3.387,0,2.184,3.387a.883.883,0,0,0,1.43,0l2.184-3.387H185.2c.023,0,.045,0,.068,0h1.254a1.8,1.8,0,0,1,1.8,1.8v9.213a.851.851,0,0,0,1.7,0v-9.213A3.505,3.505,0,0,0,186.523,401.807Z" transform="translate(-5.135 -17.17)" fill="url(#linear-gradient)"/>
    <path id="Path_16" data-name="Path 16" d="M177.325,409.986a.85.85,0,0,0-.85.85V417.4a.851.851,0,0,0,1.7,0v-6.564A.851.851,0,0,0,177.325,409.986Z" transform="translate(-7.254 -20.048)" fill="url(#linear-gradient)"/>
    <path id="Path_17" data-name="Path 17" d="M192.85,409.986a.85.85,0,0,0-.85.85V417.4a.851.851,0,0,0,1.7,0v-6.564A.851.851,0,0,0,192.85,409.986Z" transform="translate(-12.716 -20.048)" fill="url(#linear-gradient)"/>
    <path id="Path_18" data-name="Path 18" d="M178.918,389.985a4.3,4.3,0,1,0,4.3-4.3A4.3,4.3,0,0,0,178.918,389.985Zm6.9,0a2.6,2.6,0,1,1-2.6-2.6A2.6,2.6,0,0,1,185.814,389.985Z" transform="translate(-8.113 -11.5)" fill="url(#linear-gradient)"/>
    <path id="Path_19" data-name="Path 19" d="M162.326,403.8a.851.851,0,0,0-.715-.389h0l-2.9,0a2.853,2.853,0,0,0-2.85,2.85v5.578a.851.851,0,0,0,1.7,0V406.26a1.15,1.15,0,0,1,1.149-1.149h2.442l1.585,2.459a.851.851,0,1,0,1.43-.922Z" transform="translate(0 -17.734)" fill="url(#linear-gradient)"/>
    <path id="Path_20" data-name="Path 20" d="M165.7,398.153a3.452,3.452,0,1,0-3.453-3.453A3.456,3.456,0,0,0,165.7,398.153Zm0-5.2a1.751,1.751,0,1,1-1.751,1.75A1.753,1.753,0,0,1,165.7,392.95Z" transform="translate(-2.247 -13.456)" fill="url(#linear-gradient)"/>
    <path id="Path_21" data-name="Path 21" d="M207.811,403.41l-2.9,0h0a.852.852,0,0,0-.716.389l-1.837,2.849a.851.851,0,0,0,1.431.922l1.585-2.459h2.442a1.15,1.15,0,0,1,1.149,1.149v5.578a.851.851,0,0,0,1.7,0V406.26A2.853,2.853,0,0,0,207.811,403.41Z" transform="translate(-16.311 -17.734)" fill="url(#linear-gradient)"/>
    <path id="Path_22" data-name="Path 22" d="M198.205,394.7a3.452,3.452,0,1,0,3.452-3.452A3.456,3.456,0,0,0,198.205,394.7Zm5.2,0a1.75,1.75,0,1,1-1.751-1.75A1.753,1.753,0,0,1,203.407,394.7Z" transform="translate(-14.899 -13.456)" fill="url(#linear-gradient)"/>
    <path id="Path_23" data-name="Path 23" d="M188.934,369.37V365.6a.851.851,0,0,0-.85-.851h-3.817v-3.817a.851.851,0,0,0-.851-.85h-3.77a.851.851,0,0,0-.851.85v3.817h-3.817a.851.851,0,0,0-.85.851v3.771a.85.85,0,0,0,.85.85h3.817v3.817a.851.851,0,0,0,.851.85h3.77a.851.851,0,0,0,.851-.85V370.22h3.817A.85.85,0,0,0,188.934,369.37Zm-1.7-.851h-3.817a.851.851,0,0,0-.85.851v3.816H180.5V369.37a.851.851,0,0,0-.85-.851H175.83v-2.069h3.817a.851.851,0,0,0,.85-.85v-3.817h2.069V365.6a.851.851,0,0,0,.85.85h3.817Z" transform="translate(-6.428 -2.491)" fill="url(#linear-gradient)"/>
    <path id="Path_24" data-name="Path 24" d="M171.162,373.722a.851.851,0,0,0,.6-1.453,10.291,10.291,0,1,1,14.554,0,.851.851,0,0,0,1.2,1.2,11.993,11.993,0,1,0-16.96,0A.85.85,0,0,0,171.162,373.722Z" transform="translate(-3.937)" fill="url(#linear-gradient)"/>
  </g>
</svg>
