<svg xmlns="http://www.w3.org/2000/svg" xmlns:xlink="http://www.w3.org/1999/xlink" width="36.796" height="36.873" viewBox="0 0 36.796 36.873">
  <defs>
    <linearGradient id="linear-gradient" x1="0.5" x2="0.5" y2="1" gradientUnits="objectBoundingBox">
      <stop offset="0" stop-color="#ff0f17"/>
      <stop offset="1" stop-color="#ba0006"/>
    </linearGradient>
  </defs>
  <g id="ico-surg" transform="translate(-408.926 -343.827)">
    <path id="Path_26" data-name="Path 26" d="M444.415,344.457l-.485.656.484-.657a3.215,3.215,0,0,0-4.286.418L409.137,379.1a.816.816,0,0,0,.471,1.353,14.229,14.229,0,0,0,2.333.191c7.711,0,14.223-6.087,15.552-7.415a.813.813,0,0,0,.235-.654l-.287-3.034L444.9,349.191a3.22,3.22,0,0,0-.49-4.733Zm-.738,3.658-17.7,20.622a.815.815,0,0,0-.193.609l.283,2.993c-1.74,1.675-7.8,6.94-14.639,6.661l29.908-33.026a1.584,1.584,0,0,1,2.111-.2,1.586,1.586,0,0,1,.231,2.344Z" transform="translate(0)" fill="url(#linear-gradient)"/>
    <path id="Path_27" data-name="Path 27" d="M434.709,397.82H430.3a.816.816,0,0,0,0,1.632h4.405a.816.816,0,0,0,0-1.632Z" transform="translate(-7.141 -18.752)" fill="url(#linear-gradient)"/>
    <path id="Path_28" data-name="Path 28" d="M446.858,397.82h-4.405a.816.816,0,0,0,0,1.632h4.405a.816.816,0,0,0,0-1.632Z" transform="translate(-11.361 -18.752)" fill="url(#linear-gradient)"/>
    <path id="Path_29" data-name="Path 29" d="M459,397.82h-4.4a.816.816,0,0,0,0,1.632H459a.816.816,0,0,0,0-1.632Z" transform="translate(-15.58 -18.752)" fill="url(#linear-gradient)"/>
  </g>
</svg>
