<svg xmlns="http://www.w3.org/2000/svg" width="47.331" height="56.454" viewBox="0 0 47.331 56.454">
  <path id="Path_5" data-name="Path 5" d="M68.851,118.954v-3.985H66.933v-3.987H64.667V97.673h2.266V91.767H64.619A18.221,18.221,0,0,0,47.4,74.549V71.462h1.579v1.75h5.417V67.795H50.9V66.047H47.4V64.418H45.48V74.549A18.218,18.218,0,0,0,28.261,91.767H25.73v5.906h2.481v13.308H25.73v3.987H23.811v3.985H22.666v1.919H70v-1.919ZM52.475,69.714v1.579H50.9V69.714Zm-3.5-1.748v1.577H47.4V67.966Zm13.771,43.016H60.829V97.673h1.919ZM35.886,97.673v13.308H33.967V97.673Zm1.919,0h1.919v13.308H37.8Zm3.837,0h1.919v13.308H41.642Zm3.837,0H47.4v13.308H45.48Zm3.837,0h1.919v13.308H49.317Zm3.837,0h1.919v13.308H53.154Zm3.837,0h1.919v13.308H56.992ZM46.439,76.418a16.332,16.332,0,0,1,16.282,15.35H30.159A16.33,16.33,0,0,1,46.439,76.418ZM27.649,93.686H65.014v2.068H27.649Zm2.481,3.987h1.919v13.308H30.13ZM27.649,112.9H65.014v2.068H27.649Zm-1.919,6.054v-2.066h41.2v2.066Z" transform="translate(-22.666 -64.418)" fill="#9dc1ff"/>
</svg>
