<svg xmlns="http://www.w3.org/2000/svg" width="47.447" height="52.184" viewBox="0 0 47.447 52.184">
  <path id="Path_1" data-name="Path 1" d="M313.519,180.075v-.49a7.813,7.813,0,0,0-2.4-6.034c-2.923-2.685-7.407-2.334-7.609-2.319l-.943.08-.669,3.575H277.758L277,171.309l-.921-.077c-.2-.017-4.687-.368-7.608,2.319a7.813,7.813,0,0,0-2.4,6.034v.49l11.885,12.706a2.86,2.86,0,0,1-.065,4,2.146,2.146,0,0,1-3.028,0l-1.232-1.232-1.759,1.759,1.232,1.232a4.628,4.628,0,0,0,6.546,0,4.971,4.971,0,0,0,.331-.4,4.249,4.249,0,0,0,1.834,1.533l3.22,1.368V209.1h-3.182v4.976H277.51V220.9h-2.379v2.488h29.451V220.9H302.2v-6.827h-4.344V209.1h-3.182v-8.066l3.22-1.368a4.211,4.211,0,0,0,1.781-1.451c.092.1.164.221.264.321a4.628,4.628,0,0,0,6.546,0l1.232-1.232-1.759-1.759-1.232,1.232a2.146,2.146,0,0,1-3.028,0,2.86,2.86,0,0,1-.065-4Zm-8.867-6.364a7.8,7.8,0,0,1,4.789,1.674,5.158,5.158,0,0,1,1.577,3.722l-9.268,9.9,1.717-9.693h4.73V176.83h-4.13Zm-36.079,5.4a5.163,5.163,0,0,1,1.57-3.715,7.8,7.8,0,0,1,4.822-1.687l.667,3.125h-4.237v2.488h4.849l1.744,9.85Zm31.141,37.458V220.9H280v-4.339h19.715Zm-4.344-4.976v2.488H284.342v-2.488h11.027Zm-3.182-2.488h-4.663v-7.011l.192.082a5.482,5.482,0,0,0,4.282,0l.189-.08Zm4.735-11.724-5.9,2.505a3.008,3.008,0,0,1-2.336,0l-5.9-2.505a1.784,1.784,0,0,1-1.057-1.326l-3.3-18.675h22.855l-3.3,18.673A1.783,1.783,0,0,1,296.921,197.377Z" transform="translate(-266.072 -171.208)" fill="#9dc1ff"/>
</svg>
